/* XPM */
static char *bitcoin__[] = {
/* columns rows colors chars-per-pixel */
"32 32 72 1 ",
"  c #904C1E",
". c #98592E",
"X c #9B5D33",
"o c #9D6037",
"O c #9F633B",
"+ c #A0653E",
"@ c #9D6742",
"# c #9F6944",
"$ c #9D6B49",
"% c #A16740",
"& c #A36A44",
"* c #A66E49",
"= c #A5714D",
"- c #A8724E",
"; c #A47553",
": c #A97451",
"> c #AB7956",
", c #AD7C5B",
"< c #B07F5E",
"1 c #A57D60",
"2 c #AC7E60",
"3 c #AA8266",
"4 c #A6856E",
"5 c #B38464",
"6 c #B58769",
"7 c #B78B6D",
"8 c #B88C6E",
"9 c #B18E76",
"0 c #BA8E71",
"q c #AC917D",
"w c #BA9073",
"e c #B19078",
"r c #BF967A",
"t c #AB9583",
"y c #AF9B8C",
"u c #B59883",
"i c #BA9F8B",
"p c #BCA18D",
"a c #BDA796",
"s c #BEA897",
"d c #B7A99D",
"f c #BBAC9F",
"g c #BBADA1",
"h c #BEB2A8",
"j c #C19A80",
"k c #C6A28A",
"l c #C9A791",
"z c #CAAA93",
"x c #CCAD98",
"c c #C1B3A7",
"v c #C2B7AD",
"b c #C5B9AE",
"n c #D1B5A2",
"m c #D3B9A6",
"M c #D6BDAC",
"N c #C4BBB3",
"B c #C9C2BB",
"V c #DAC4B4",
"C c #DFCBBD",
"Z c #E0CCBF",
"A c #E1CEC2",
"S c #E2D0C4",
"D c #E5D5CB",
"F c #EADDD3",
"G c #EBE0D7",
"H c #EDE2DA",
"J c #F2E9E4",
"K c #F5EEEA",
"L c #F6F2ED",
"P c #F9F5F2",
"I c #FFFEFE",
"U c None",
/* pixels */
"UUUUUUUUUUUUUUUUUUUUUUUUUUUUUUUU",
"UUUUUUUUUUUUUUUUUUUUUUUUUUUUUUUU",
"UUUUUUUUUUUUUUUUUUUUUUUUUUUUUUUU",
"UUUUUUUUUUU**&&=&+:,UUUUUUUUUUUU",
"UUUUUUUUU&+*OO&@oO&&&,UUUUUUUUUU",
"UUUUUUUU*oo&+&&*OO%*&*>iUUUUUUUU",
"UUUUUUU**&O+*+O*O***-*&&iUUUUUUU",
"UUUUUU*-&&*OO+OO:orr&*%+&sUUUUUU",
"UUUUU&&&o&*oX.XoXjP7+&**.>NUUUUU",
"UUUU+&o&*&oX5MFFZIkkSo*&&oeUUUUU",
"UUUU%&&&&oOVIIKIIIPI8o&+&o*hUUUU",
"UUU%&*++OoSID:xK,SIIl***&oouUUUU",
"UUU&=+o+.lIV lK*mF:l:*****&3BUUU",
"UUU*+&&*OKP.nKoVH*Xo&+-%&%&;vUUU",
"UUU&&&&o<ImnKXCGX.Xo..*-+o+=gUUU",
"UUUO+%-+0IPDXDD.>VMMMx**++o*gUUU",
"UUUO+o=X>IHoFC.X6IIIIH&*OOO$gUUU",
"UUU&o+*&SIHFV.+@&>-7IVO&o+o=hUUU",
"UUU&+%oZVkIGoXOOo..CI0%+OOo1NUUU",
"UUU=o+&5,FJIS<Oo+,ZIVo*&&OXqBUUU",
"UUUU&O++kzoSIIPJPIICo*&*++@dUUUU",
"UUUU2oO&OX*o7VGJHVw+&*%*Oo4NUUUU",
"UUUUU=o&++&OX.ooo..&&&oOo$dUUUUU",
"UUUUUp&o&&%OO&OO+%%&OOOOOyBUUUUU",
"UUUUUUi&+&OOO+OOO+O+OOootNUUUUUU",
"UUUUUUUa<Xo+OO@OOOOOOo$yNUUUUUUU",
"UUUUUUUUbe*XooOoO+oX#4gBUUUUUUUU",
"UUUUUUUUUUhu3=*@#=1qdNUUUUUUUUUU",
"UUUUUUUUUUUUBbgfghNBUUUUUUUUUUUU",
"UUUUUUUUUUUUUUUUUUUUUUUUUUUUUUUU",
"UUUUUUUUUUUUUUUUUUUUUUUUUUUUUUUU",
"UUUUUUUUUUUUUUUUUUUUUUUUUUUUUUUU"
};
