/* XPM */
static char *bitcoin__[] = {
/* columns rows colors chars-per-pixel */
"64 64 63 1 ",
"  c #8C4C26",
". c #8D4F29",
"X c #8F522C",
"o c #90532F",
"O c #925632",
"+ c #945935",
"@ c #965D3A",
"# c #985F3D",
"$ c #99613F",
"% c #9A6342",
"& c #9F6A4A",
"* c #A16D4D",
"= c #A26F50",
"- c #A47254",
"; c #A77659",
": c #A97A5D",
"> c #AB7E62",
", c #AE8166",
"< c #AF8368",
"1 c #B1866C",
"2 c #B2886F",
"3 c #B58C73",
"4 c #B79078",
"5 c #B9927B",
"6 c #BC9680",
"7 c #BE9A85",
"8 c #BF9D88",
"9 c #C09D87",
"0 c #C09E89",
"q c #C2A18C",
"w c #C5A592",
"e c #C7A996",
"r c #C8A997",
"t c #CAAC9A",
"y c #CCB09F",
"u c #CEB2A2",
"i c #D0B6A7",
"p c #D1B7A8",
"a c #D3BBAC",
"s c #D6BFB1",
"d c #D7C1B4",
"f c #D9C3B6",
"g c #DAC6B9",
"h c #DCC9BD",
"j c #DFCDC2",
"k c #E0CFC5",
"l c #E1D0C6",
"z c #E3D4CB",
"x c #E6D8CF",
"c c #E6D9D0",
"v c #E9DCD5",
"b c #EADFD8",
"n c #EDE2DC",
"m c #EFE6E1",
"M c #F0E7E2",
"N c #F1E9E4",
"B c #F4EEEB",
"V c #F5F0ED",
"C c #F7F3F1",
"Z c #F9F5F4",
"A c #FBF9F7",
"S c #FFFEFE",
"D c None",
/* pixels */
"DDDDDDDDDDDDDDDDDDDDDDDDDDDDDDDDDDDDDDDDDDDDDDDDDDDDDDDDDDDDDDDD",
"DDDDDDDDDDDDDDDDDDDDDDDDDDDDDDDDDDDDDDDDDDDDDDDDDDDDDDDDDDDDDDDD",
"DDDDDDDDDDDDDDDDDDDDDDDDDDDDDDDDDDDDDDDDDDDDDDDDDDDDDDDDDDDDDDDD",
"DDDDDDDDDDDDDDDDDDDDDDDDDDDDDDDDDDDDDDDDDDDDDDDDDDDDDDDDDDDDDDDD",
"DDDDDDDDDDDDDDDDDDDDDDDDDDD%%%%%%%%%%DDDDDDDDDDDDDDDDDDDDDDDDDDD",
"DDDDDDDDDDDDDDDDDDDDDDD%%%%$#@+O++@#%%%%%DDDDDDDDDDDDDDDDDDDDDDD",
"DDDDDDDDDDDDDDDDDDDDD%%%@oO@*:<22,:&@OO@%%%DDDDDDDDDDDDDDDDDDDDD",
"DDDDDDDDDDDDDDDDDDD%%$O+;qskzjgddgkzjs0-OO$%%DDDDDDDDDDDDDDDDDDD",
"DDDDDDDDDDDDDDDDD$%#O%0jli5;%@+OO+@%:6plj7%O#%%DDDDDDDDDDDDDDDDD",
"DDDDDDDDDDDDDDD%%%O%rca1$OO+$%%%%%%$+OO$2dcq#+%%DDDDDDDDDDDDDDDD",
"DDDDDDDDDDDDDD%%#O4cp=X+%%%%$$$%$$$$%%%%O ;ax3O#%%DDDDDDDDDDDDDD",
"DDDDDDDDDDDDD%%+%fl:X#%%$$#%%%%%%%%%$%%+;0Xo>za@@%%DDDDDDDDDDDDD",
"DDDDDDDDDDDD$%+-brO+%%$$%%%$+OOOOO+@$%+&nSe#@Oux*+%$DDDDDDDDDDDD",
"DDDDDDDDDDD$%O>n2o%%$$%%#O+%:40ww83;%o=NSSn%%%X5b;+%%DDDDDDDDDDD",
"DDDDDDDDDD%%O>b:O%$$$%#O%4gNSSSSSSSAnitxAM=@#@%O,b;+%%DDDDDDDDDD",
"DDDDDDDDD%%@-b:O%#%$%+%wmSSSSSSSSSSSSSAls*o%j4O%O,b*@%DDDDDDDDDD",
"DDDDDDDDD%#%v2O%%$%%O2nSSSSSSSSSSSSSSSSSSl=jSA4+%O5c@$$DDDDDDDDD",
"DDDDDDDD%%odrX%$#%$+tSSSSSSSSSSSSSSSSSSSSkzSSV,@%%oupO%$DDDDDDDD",
"DDDDDDDD%O4k+%#$%#@fSSSSSSSSSSCBNBCSSSSSghSSN;O%$$$+z2+$DDDDDDDD",
"DDDDDDD%#%c:@%$$%+gSSSSSSSAh8:=$;kghbASgjSSnaw+%$$%+,z@$%DDDDDDD",
"DDDDDDD%OrpX%$%%OuSSSSSSSs;+O#+&bSSb%<ukSSnpAS6O%$$%OsqO%DDDDDDD",
"DDDDDD%$%c=#%%%+4SSSSSSN2O@%%@&nSSn=@@gSSniASSC:@%$%+:z$$%DDDDDD",
"DDDDDD%O8aO%$$$%MSSSSSn=+%%%@&nSSM=+%lSSMiASSSSl@$$$%Od5+%DDDDDD",
"DDDDD%%+h,+%$%OtSSSSSM*+%$%@&nSSn=+%lSSB;>SSSSSS4+%$%+3f+%%DDDDD",
"DDDDD%@;l#$$$#*BSSSSS>O%$%@*nSSn=+%lSSB:@O6SSSSSx@$$$$%z=@%DDDDD",
"DDDDD%Oqio%$%OqSSSSSuO%$%@&nSSM=+%lSSV:+%%+kSSSSS1+%$%Oa5O%DDDDD",
"DDDDD%Os5O%$%@lSSSSV*@%%@*nSSM=+%lSSV:+%$%+,SSSSSpO%$%O9aX%DDDDD",
"DDDD%$@k;@$%@=ASSSSpO%%+&nSSM=+%lSSV:O%%$%%+zSSASn$$$%+>h@$DDDDD",
"DDDD%#*z%$$%+3SSSSS2+%@&nSSn=+%lSSB:+%%#$$%OwSSSSS;@%$$*z%$%DDDD",
"DDDD%@;j@%$%OwSSSSC*%@*nSSM=+%kSSB>@%%#%$$%@-utttu-@$$$$z-@%DDDD",
"DDDD%+<g+%$%OpSSSSb%@&nSSm=+%kSSB:+%#%%%%%%%#OOOOO@%$$$@h:@%DDDD",
"DDDD%+2d+%$%+dSSSSzO&nSSn-+%kSSV:@#@@@@@@@@@@$##%##$$$%+h,@%DDDD",
"DDDD%+2fO%%%OdSSSSj%nSSM=+%lSSB:@@=lccccccccccccxn5+%%%+h>@%DDDD",
"DDDD%+,f+%$%OaSSSSpvSSM=+$kSSV:@#&nSSSSSSSSSSSSSSS0O%##+j>+&DDDD",
"DDDD%@:j@%#%OrSASacSSM=+%jSSV:+@&nSAASSASAASSSSSAS4O%%%$l-#%DDDD",
"DDDD%#*z%#%%+5SSacSSM=+%kSSV>+$;MSSSSSSSSSSSSSSSSS:+%##&l%#%DDDD",
"DDDD%%@l;@%%@;AaxSSb=+$kSSV>+%$tjfggggggggggVSSSSN%%$%@>h+%DDDDD",
"DDDDD%Oa5+%#%#wbSSbt%$kSSV:O%$$@O+OO+++++@o&ASSASfO%#%O8po%DDDDD",
"DDDDD%OqiX%%@&cSScpS8aSSV:+%$$$%%%%%%%%%%%+sSSSSS4O%%%Oa6O%DDDDD",
"DDDDD%@;l#%+&nSSbpSSNiSV>+%%$$$$%%%#%$$$%+<SSSSSM%$%##%z*#%DDDDD",
"DDDDD%%+h<O;nSSnpASSSju,+%$$$%$$$$$$#%#%@&NSSSSSqO%$%O3f+%%DDDDD",
"DDDDDD%O8d 2ASn>BSSSSSd+$%$$$$$$$$$%%%%+&nSSSSSn%$%$%Od5O%DDDDDD",
"DDDDDD%$%c=X3n=X0SSSSSSz*O$%%$$$$$$%%#o:MSSSSSS2+%$$@;z#$%DDDDDD",
"DDDDDDD%OrpO$$@%uzSSSSSSV0%O+$%%%%$Oo&uASSSSSSyo%$$$OdqO%DDDDDDD",
"DDDDDDD%#%c;@%#jSlnSSSSSSSnt>&@++#&1iBSSSSSASg+%$$%@,z@$%DDDDDDD",
"DDDDDDDD%O5k+%@rSN,cSSSSSSSSSBcjlcVSSSSSSSSSh##%$$$+z2+%DDDDDDDD",
"DDDDDDDD%%odtX%Oq2O%jSSSSSSSSSSSSSSSSSSSSSSp@#%%$%XupO%%DDDDDDDD",
"DDDDDDDDD%#%v2O%+@%#+wASSSSSSSSSSSSSSSSSSB5O%#%#%O5x@$%DDDDDDDDD",
"DDDDDDDDD%%+-n:O&$$%%O;fASSSSSSSSSSSSSSCu&O%%$$%O,b*@%DDDDDDDDDD",
"DDDDDDDDDD%%O>b:O%$$$%@O;unSSSSSSSSSAcw=O#%$$%%O<n;O%%DDDDDDDDDD",
"DDDDDDDDDDD%%O>b2X%%$$%%@O#:6ydffar4;@O@%%$$%%X4b:+%%DDDDDDDDDDD",
"DDDDDDDDDDDD%%+-vrO@%%$$%%$+OOO++OO+@%%%$$%%++uc*+%$DDDDDDDDDDDD",
"DDDDDDDDDDDDD%%+%dl:o@%%$$$%%%%%%%%%%$$$%%+O>za@@%%DDDDDDDDDDDDD",
"DDDDDDDDDDDDDD%%@O4cp=o+$%%%$$$$$$$%%%%$+O-az4O$%$DDDDDDDDDDDDDD",
"DDDDDDDDDDDDDDD%%%O$rxa1#OO+$%%%%%%#+OO$2axw@O%%DDDDDDDDDDDDDDDD",
"DDDDDDDDDDDDDDDDD%%$O%0jlp5:%@+O++@%:6plj9%o$%%DDDDDDDDDDDDDDDDD",
"DDDDDDDDDDDDDDDDDDD%%$O+;0skzjgffgkzka0-+O#%%DDDDDDDDDDDDDDDDDDD",
"DDDDDDDDDDDDDDDDDDDDD%%%@oO@*:,21,;*@OO@%%%DDDDDDDDDDDDDDDDDDDDD",
"DDDDDDDDDDDDDDDDDDDDDDD%%%%%@@++++@@%%%%%DDDDDDDDDDDDDDDDDDDDDDD",
"DDDDDDDDDDDDDDDDDDDDDDDDDDD%%%%%%%%%%DDDDDDDDDDDDDDDDDDDDDDDDDDD",
"DDDDDDDDDDDDDDDDDDDDDDDDDDDDDDDDDDDDDDDDDDDDDDDDDDDDDDDDDDDDDDDD",
"DDDDDDDDDDDDDDDDDDDDDDDDDDDDDDDDDDDDDDDDDDDDDDDDDDDDDDDDDDDDDDDD",
"DDDDDDDDDDDDDDDDDDDDDDDDDDDDDDDDDDDDDDDDDDDDDDDDDDDDDDDDDDDDDDDD",
"DDDDDDDDDDDDDDDDDDDDDDDDDDDDDDDDDDDDDDDDDDDDDDDDDDDDDDDDDDDDDDDD"
};
