/* XPM */
static char *bitcoin__[] = {
/* columns rows colors chars-per-pixel */
"64 64 106 2 ",
"   c #914D1F",
".  c #924F23",
"X  c #935124",
"o  c #965529",
"O  c #97582D",
"+  c #98592E",
"@  c #9B5D33",
"#  c #9E6037",
"$  c #9F643B",
"%  c #A0663E",
"&  c #9F6640",
"*  c #9F6945",
"=  c #9F6D4B",
"-  c #9F7456",
";  c #9F775A",
":  c #A16740",
">  c #A36A44",
",  c #A66E49",
"<  c #A86F49",
"1  c #A7704B",
"2  c #A8724D",
"3  c #A47453",
"4  c #AB7652",
"5  c #AC7956",
"6  c #A0775B",
"7  c #A37A5D",
"8  c #AE7C5A",
"9  c #B07E5D",
"0  c #A27C62",
"q  c #B0805F",
"w  c #A28067",
"e  c #A88166",
"r  c #A28068",
"t  c #AA846A",
"y  c #B28363",
"u  c #B58768",
"i  c #B6896B",
"p  c #B88B6E",
"a  c #A38772",
"s  c #AC8C76",
"d  c #A58F7E",
"f  c #B48E74",
"g  c #B98E71",
"h  c #B49077",
"j  c #BA9174",
"k  c #B4937B",
"l  c #BE967A",
"z  c #BF987E",
"x  c #A79383",
"c  c #A99383",
"v  c #A79789",
"b  c #A99A8D",
"n  c #B49E8C",
"m  c #AC9F92",
"M  c #AEA195",
"N  c #B3A294",
"B  c #BEA492",
"V  c #B3A599",
"C  c #B6A99E",
"Z  c #B9AA9D",
"A  c #BBAEA3",
"S  c #BDB1A6",
"D  c #BCB2A8",
"F  c #C29C82",
"G  c #C4A087",
"H  c #C6A38B",
"J  c #C8A58E",
"K  c #C0A694",
"L  c #C9A790",
"P  c #CAA994",
"I  c #CDAE99",
"U  c #CFB29E",
"Y  c #D0B39F",
"T  c #C2B5AA",
"R  c #C4B9AE",
"E  c #C8BAAF",
"W  c #D1B5A2",
"Q  c #D3B9A6",
"!  c #D6BCAB",
"~  c #C5BBB2",
"^  c #C9BEB5",
"/  c #CAC0B7",
"(  c #CCC3BA",
")  c #DAC4B5",
"_  c #DCC7B8",
"`  c #DECABC",
"'  c #E0CDBF",
"]  c #CDC6C0",
"[  c #CFC8C1",
"{  c #D0C8C2",
"}  c #DFCCC0",
"|  c #E1CEC1",
" . c #E2D1C4",
".. c #E5D6CB",
"X. c #E7D9CE",
"o. c #EADDD4",
"O. c #ECE0D7",
"+. c #EEE4DC",
"@. c #F0E7E1",
"#. c #F2EAE4",
"$. c #F5EEEA",
"%. c #F6F1ED",
"&. c #F9F5F2",
"*. c #FBF8F6",
"=. c #FEFEFE",
"-. c None",
/* pixels */
"-.-.-.-.-.-.-.-.-.-.-.-.-.-.-.-.-.-.-.-.-.-.-.-.-.-.-.-.-.-.-.-.-.-.-.-.-.-.-.-.-.-.-.-.-.-.-.-.-.-.-.-.-.-.-.-.-.-.-.-.-.-.-.-.",
"-.-.-.-.-.-.-.-.-.-.-.-.-.-.-.-.-.-.-.-.-.-.-.-.-.-.-.-.-.-.-.-.-.-.-.-.-.-.-.-.-.-.-.-.-.-.-.-.-.-.-.-.-.-.-.-.-.-.-.-.-.-.-.-.",
"-.-.-.-.-.-.-.-.-.-.-.-.-.-.-.-.-.-.-.-.-.-.-.-.-.-.-.-.-.-.-.-.-.-.-.-.-.-.-.-.-.-.-.-.-.-.-.-.-.-.-.-.-.-.-.-.-.-.-.-.-.-.-.-.",
"-.-.-.-.-.-.-.-.-.-.-.-.-.-.-.-.-.-.-.-.-.-.-.-.-.-.-.-.-.-.-.-.-.-.-.-.-.-.-.-.-.-.-.-.-.-.-.-.-.-.-.-.-.-.-.-.-.-.-.-.-.-.-.-.",
"-.-.-.-.-.-.-.-.-.-.-.-.-.-.-.-.-.-.-.-.-.-.-.-.-.-.-.-.-.-.-.-.-.-.-.-.-.-.-.-.-.-.-.-.-.-.-.-.-.-.-.-.-.-.-.-.-.-.-.-.-.-.-.-.",
"-.-.-.-.-.-.-.-.-.-.-.-.-.-.-.-.-.-.-.-.-.-.-.-.-.-.-.-.-.-.-.-.-.-.-.-.-.-.-.-.-.-.-.-.-.-.-.-.-.-.-.-.-.-.-.-.-.-.-.-.-.-.-.-.",
"-.-.-.-.-.-.-.-.-.-.-.-.-.-.-.-.-.-.-.-.-.-.-.-.> > & $ : % > > > $ > > > -.-.-.-.-.-.-.-.-.-.-.-.-.-.-.-.-.-.-.-.-.-.-.-.-.-.-.",
"-.-.-.-.-.-.-.-.-.-.-.-.-.-.-.-.-.-.-.-.-.1 1 , > , , , 1 , > y > $ $ $ > 5 y 2 h -.-.-.-.-.-.-.-.-.-.-.-.-.-.-.-.-.-.-.-.-.-.-.",
"-.-.-.-.-.-.-.-.-.-.-.-.-.-.-.-.-.-.-.> $ : 2 : > $ > $ $ % 2 $ $ $ $ $ , 2 > @ % 2 k -.-.-.-.-.-.-.-.-.-.-.-.-.-.-.-.-.-.-.-.-.",
"-.-.-.-.-.-.-.-.-.-.-.-.-.-.-.-.-., > $ $ $ , % $ $ $ # : 2 % $ $ $ $ $ % # % > % @ # 5 B -.-.-.-.-.-.-.-.-.-.-.-.-.-.-.-.-.-.-.",
"-.-.-.-.-.-.-.-.-.-.-.-.-.-.-.-.4 % % % $ $ > , $ $ $ > 2 $ # $ $ $ $ $ % : 4 4 , , : $ > h ( -.-.-.-.-.-.-.-.-.-.-.-.-.-.-.-.-.",
"-.-.-.-.-.-.-.-.-.-.-.-.-.-.-.$ 2 > @ % $ $ $ , $ # , 1 $ > 4 4 $ $ $ $ < > > : # , 9 5 5 # 8 E -.-.-.-.-.-.-.-.-.-.-.-.-.-.-.-.",
"-.-.-.-.-.-.-.-.-.-.-.-.-.-.& , 1 > , % $ $ $ > 1 , > $ $ > 4 > $ $ $ 2 2 : < < 1 5 < > , , + 1 T -.-.-.-.-.-.-.-.-.-.-.-.-.-.-.",
"-.-.-.-.-.-.-.-.-.-.-.-.-.$ 4 4 > > : 2 $ $ $ $ , > $ % $ $ $ $ & $ % 2 4 5 5 8 5 : # 1 % < : @ > T -.-.-.-.-.-.-.-.-.-.-.-.-.-.",
"-.-.-.-.-.-.-.-.-.-.-.-.% 4 8 , > > $ > > $ $ $ $ $ $ $ $ $ $ $ % 5 % % : 5 > 2 1 4 8 > # , % % @ 1 E -.-.-.-.-.-.-.-.-.-.-.-.-.",
"-.-.-.-.-.-.-.-.-.-.-.% : 2 > % : , 1 > 2 > $ $ $ $ $ $ $ $ $ > 5 2 , : 5 O. .> , 2 5 % $ > > $ : @ 7 / -.-.-.-.-.-.-.-.-.-.-.-.",
"-.-.-.-.-.-.-.-.-.-.> $ 1 $ 1 : # $ $ : 5 : $ % $ $ $ $ % % % > 2 2 5 8 o.=.O.4 : > , $ % 5 2 @ % : @ h ] -.-.-.-.-.-.-.-.-.-.-.",
"-.-.-.-.-.-.-.-.-.1 $ : , $ > , # $ > 1 % $ $ $ % $ $ @ + + + O O @ y +.=.o.4 # > > % > 1 2 1 $ $ $ > > Z { -.-.-.-.-.-.-.-.-.-.",
"-.-.-.-.-.-.-.-.-.: $ 2 : $ $ 1 & 1 , $ $ $ % % @ @ , g P Q ! Q J F +.=._ 4 + i &.H : < % < 1 % $ $ 2 $ 3 ^ -.-.-.-.-.-.-.-.-.-.",
"-.-.-.-.-.-.-.-.> $ : , $ $ # 1 2 > $ $ $ % $ + u _ &.=.=.=.=.=.=.=.=.=.W 5 G *.=.Q % % > : , % # , > $ $ n ( -.-.-.-.-.-.-.-.-.",
"-.-.-.-.-.-.-.-.% $ < > $ % , , $ $ $ $ % @ : _ =.=.=.=.=.=.=.=.=.=.*.=.=.&.&.=.W % % % , % , % & 1 $ $ $ 3 ~ -.-.-.-.-.-.-.-.-.",
"-.-.-.-.-.-.-.1 $ : , @ > 2 > $ $ $ $ : @ 5 #.=.=.*.=.=.*.o.$.=.=.=.=.=.=.=.=.#.: : > # < $ > : 1 : $ $ $ # N ( -.-.-.-.-.-.-.-.",
"-.-.-.-.-.-.-.> $ , % > , % $ $ $ $ $ @ 5 %.=.*.=.=._ g % i &.=.) 8 H *.=.=.=.=.@.5 : 2 > # > 2 > $ $ $ $ % t ^ -.-.-.-.-.-.-.-.",
"-.-.-.-.-.-.-.$ % 4 2 > $ $ $ % % & $ > @.=.=.=.o.9 @ X g *.=.Q % @ H =.&.$.=.=.$.q 2 q 1 , 4 9 $ $ $ $ $ < 1 A ( -.-.-.-.-.-.-.",
"-.-.-.-.-.-.1 $ 4 5 $ $ % $ $ $ $ % @ ) =.*.=. .% @ @ z *.=.P % @ Q =.*.p > +.#.> $ 2 4 > % , 2 5 , , $ : , # n / -.-.-.-.-.-.-.",
"-.-.-.-.-.-.: , > , : $ $ # $ $ % @ y =.=.=.O.$ $ @ F =.=.G @ : Q =.%.u @ @ , 1 @ 4 $ , 4 @ > % > , > , 5 1 : s ^ -.-.-.-.-.-.-.",
"-.-.-.-.-.-.2 > $ $ 1 $ > 4 % $ $ @ ) =.=.=.y @ @ J =.*.n o > _ =.$.u @ : : $ @ 2 > $ $ 5 % < % # 2 > # , , : e R -.-.-.-.-.-.-.",
"-.-.-.-.-.-.5 % $ $ > , $ 1 4 9 $ > $.=.=.` @ @ P =.*.l O $ | =.#.5 % > $ $ $ > > $ $ $ 2 5 > % 1 , $ $ $ 1 @ 3 D / -.-.-.-.-.-.",
"-.-.-.-.-.-.> 1 > $ $ 1 : # % > @ u =.=.=.l . W =.*.g o :  .=.+.4 @ > , $ % : 4 : % % $ % 8 2 , > $ $ $ $ , > * A / -.-.-.-.-.-.",
"-.-.-.-.-.-.$ $ > 2 > $ 1 $ $ % o n =.=.=.1 W =.&.i o > ..=.+.5 @ $ @ > @ @ > $ @ @ @ $ $ 1 5 > $ $ % $ $ $ < > V / -.-.-.-.-.-.",
"-.-.-.-.-.-.% $ $ $ , , , , > 4 > P =.=.$._ =.%.y o , o.=.o.> > 1 1 5 u 5 y y 5 5 5 8 5 > 5 < < > $ $ $ $ $ > 3 N ^ -.-.-.-.-.-.",
"-.-.-.-.-.-.% $ $ $ $ % 1 5 > > % L =.=.=.=.$.8 o 1 +.=...$ # $ @ P =.*.=.=.*.=.=.=.=.| @ 8 % > : $ $ $ $ $ $ > N ^ -.-.-.-.-.-.",
"-.-.-.-.-.-.$ $ $ $ % # > 4 # > @ z =.=.=.@.5 o 5 @.=.` $ $ > % O H =.=.=.=.=.=.=.=.=._ : 2 > 1 $ % $ $ $ $ $ * M / -.-.-.-.-.-.",
"-.-.-.-.-.-.& $ $ $ $ # < 1 % , # u =.*.=.F   9 $.=._ # # $ $ : @ H =.=.=.=.=.=.=.=.=.) % , > : $ $ $ $ $ % $ = V ~ -.-.-.-.-.-.",
"-.-.-.-.-.-.> $ $ % % % > < : % 1 ..=.=.=.` i %.=.! @ $ $ $ % $ $ 1 y 8 u i 8 l =.=.=.P @ , , % $ % % $ $ % # 3 C / -.-.-.-.-.-.",
"-.-.-.-.-.-.* # $ $ % > : > % 2 +.=.*.=.=.*.&.=.! @ $ % $ $ $ $ $ @ @ @ # > X I =.=.=.8 % < > % $ $ $ $ $ % # 0 A / -.-.-.-.-.-.",
"-.-.-.-.-.-.1 $ $ $ $ % < % y O.=.` i =.=.=.=.U > , $ % $ $ $ $ $ $ $ $ > > 2 &.=.=.o.# , 1 % % $ $ $ $ $ % # a D ( -.-.-.-.-.-.",
"-.-.-.-.-.-.5 $ $ % $ $ 1 # U =.` : X } =.*.=._ 2 $ % % $ $ % $ $ $ $ > # > ..=.=.=.g @ 2 > $ % $ % $ % $ $ % x T -.-.-.-.-.-.-.",
"-.-.-.-.-.-.-.> $ $ $ $ % < 1 P > o H *.=.=.=.=.X.2 O @ $ $ % $ > $ # O 1 ..=.*.=.| @ : 4 : $ % % % $ $ $ # 1 M E -.-.-.-.-.-.-.",
"-.-.-.-.-.-.-.1 $ % $ $ % : 4 > $ P =.*.I #.=.=.=.&.Q y > @ @ @ @ $ 8 U %.=.=.=.@., # , 4 % $ 5 % # $ $ % # r C ^ -.-.-.-.-.-.-.",
"-.-.-.-.-.-.-.h $ $ $ $ $ $ 4 5 > #.=.l X y $.=.=.=.=.=.#.X. .| X.#.=.=.=.*.=.@.5 @ $ 4 , # , 4 $ $ $ $ $ > x S ( -.-.-.-.-.-.-.",
"-.-.-.-.-.-.-.-.4 @ $ $ $ $ % 5 1 u g + : @ 8 ..=.=.=.=.=.=.=.=.=.=.=.=.=.=.X., @ $ $ 8 % % 2 , $ $ $ $ # 6 M E -.-.-.-.-.-.-.-.",
"-.-.-.-.-.-.-.-.k $ $ $ $ & $ , > > : 2 > 4 % @ g ..=.=.=.=.=.=.=.=.=.=.o.l , , , $ : 2 $ > 4 > $ $ $ $ $ d A / -.-.-.-.-.-.-.-.",
"-.-.-.-.-.-.-.-.-.5 # $ $ $ $ , % $ $ $ > 2 $ % @ @ 4 l W ) } } _ Q F 8 $ + 1 : > , 4 > $ % : $ $ $ $ $ 6 M R -.-.-.-.-.-.-.-.-.",
"-.-.-.-.-.-.-.-.-.K $ $ $ $ $ > > $ % $ , : $ $ > $ # @ O @ O @ @ + + @ % $ , : @ , , $ $ $ $ $ $ & % * x A ( -.-.-.-.-.-.-.-.-.",
"-.-.-.-.-.-.-.-.-.-.h @ $ $ $ > > $ $ % 2 $ $ $ $ $ $ & % & $ > : % : % $ $ > , , , $ $ % $ % $ $ $ $ a V ~ -.-.-.-.-.-.-.-.-.-.",
"-.-.-.-.-.-.-.-.-.-.( 8 @ > $ > > $ $ > > $ $ $ $ $ $ $ $ $ $ $ $ $ % $ $ % % 2 : $ $ $ $ $ % $ $ # 0 m T ( -.-.-.-.-.-.-.-.-.-.",
"-.-.-.-.-.-.-.-.-.-.-.R 1 @ $ : > $ % 1 $ $ % $ % $ $ % $ $ % $ $ $ $ $ $ $ $ $ % $ $ $ $ $ $ $ $ - b A ( -.-.-.-.-.-.-.-.-.-.-.",
"-.-.-.-.-.-.-.-.-.-.-.-.T > @ : 1 $ > > $ $ $ $ $ $ $ $ $ $ % $ $ $ % $ $ $ $ $ $ % $ $ $ % % # - v Z / -.-.-.-.-.-.-.-.-.-.-.-.",
"-.-.-.-.-.-.-.-.-.-.-.-.-.T 1 @ 1 > 1 $ $ $ % $ $ % % $ $ $ $ $ % $ $ $ $ $ % $ $ $ $ % $ % # - x C ^ -.-.-.-.-.-.-.-.-.-.-.-.-.",
"-.-.-.-.-.-.-.-.-.-.-.-.-.-.R 7 % 2 > $ $ % $ $ $ $ $ $ $ % % $ $ $ $ $ % $ % $ $ $ $ $ # % 0 b Z ^ -.-.-.-.-.-.-.-.-.-.-.-.-.-.",
"-.-.-.-.-.-.-.-.-.-.-.-.-.-.-./ k 1 @ % $ $ $ $ $ % $ $ $ $ $ $ $ $ % $ $ $ $ $ $ % $ # & a m A / -.-.-.-.-.-.-.-.-.-.-.-.-.-.-.",
"-.-.-.-.-.-.-.-.-.-.-.-.-.-.-.-.] Z 3 # @ $ & $ $ % $ $ $ $ $ $ % $ $ % $ $ $ % $ $ $ 6 x V T ( -.-.-.-.-.-.-.-.-.-.-.-.-.-.-.-.",
"-.-.-.-.-.-.-.-.-.-.-.-.-.-.-.-.-.{ ^ n 3 $ # $ $ $ % $ $ % $ $ $ $ $ % $ $ $ # & ; d M D ~ ( -.-.-.-.-.-.-.-.-.-.-.-.-.-.-.-.-.",
"-.-.-.-.-.-.-.-.-.-.-.-.-.-.-.-.-.-.-.( ~ N e > $ # # # $ $ $ $ $ $ $ # $ $ 1 r x M A R / -.-.-.-.-.-.-.-.-.-.-.-.-.-.-.-.-.-.-.",
"-.-.-.-.-.-.-.-.-.-.-.-.-.-.-.-.-.-.-.-.-.( ^ D n s 0 3 > * * & & = 3 0 a x M C S ~ / -.-.-.-.-.-.-.-.-.-.-.-.-.-.-.-.-.-.-.-.-.",
"-.-.-.-.-.-.-.-.-.-.-.-.-.-.-.-.-.-.-.-.-.-.-.( / ^ R D Z V V N V V C A D R R ^ ( -.-.-.-.-.-.-.-.-.-.-.-.-.-.-.-.-.-.-.-.-.-.-.",
"-.-.-.-.-.-.-.-.-.-.-.-.-.-.-.-.-.-.-.-.-.-.-.-.-.-.-.( / / ~ ^ ~ ~ / / / -.-.-.-.-.-.-.-.-.-.-.-.-.-.-.-.-.-.-.-.-.-.-.-.-.-.-.",
"-.-.-.-.-.-.-.-.-.-.-.-.-.-.-.-.-.-.-.-.-.-.-.-.-.-.-.-.-.-.-.-.-.-.-.-.-.-.-.-.-.-.-.-.-.-.-.-.-.-.-.-.-.-.-.-.-.-.-.-.-.-.-.-.",
"-.-.-.-.-.-.-.-.-.-.-.-.-.-.-.-.-.-.-.-.-.-.-.-.-.-.-.-.-.-.-.-.-.-.-.-.-.-.-.-.-.-.-.-.-.-.-.-.-.-.-.-.-.-.-.-.-.-.-.-.-.-.-.-.",
"-.-.-.-.-.-.-.-.-.-.-.-.-.-.-.-.-.-.-.-.-.-.-.-.-.-.-.-.-.-.-.-.-.-.-.-.-.-.-.-.-.-.-.-.-.-.-.-.-.-.-.-.-.-.-.-.-.-.-.-.-.-.-.-.",
"-.-.-.-.-.-.-.-.-.-.-.-.-.-.-.-.-.-.-.-.-.-.-.-.-.-.-.-.-.-.-.-.-.-.-.-.-.-.-.-.-.-.-.-.-.-.-.-.-.-.-.-.-.-.-.-.-.-.-.-.-.-.-.-.",
"-.-.-.-.-.-.-.-.-.-.-.-.-.-.-.-.-.-.-.-.-.-.-.-.-.-.-.-.-.-.-.-.-.-.-.-.-.-.-.-.-.-.-.-.-.-.-.-.-.-.-.-.-.-.-.-.-.-.-.-.-.-.-.-.",
"-.-.-.-.-.-.-.-.-.-.-.-.-.-.-.-.-.-.-.-.-.-.-.-.-.-.-.-.-.-.-.-.-.-.-.-.-.-.-.-.-.-.-.-.-.-.-.-.-.-.-.-.-.-.-.-.-.-.-.-.-.-.-.-."
};
