/* XPM */
static char *bitcoin__[] = {
/* columns rows colors chars-per-pixel */
"32 32 56 1 ",
"  c #8B4B25",
". c #8D4F29",
"X c #8E512B",
"o c #90532E",
"O c #925632",
"+ c #945935",
"@ c #965C39",
"# c #985F3C",
"$ c #99613E",
"% c #9B6442",
"& c #9F6A4A",
"* c #A06C4C",
"= c #A47253",
"- c #A7775A",
"; c #A97A5D",
": c #AB7D61",
"> c #AE8267",
", c #AF8369",
"< c #B1856B",
"1 c #B2886E",
"2 c #B68E75",
"3 c #B79179",
"4 c #B9927B",
"5 c #BC9780",
"6 c #BD9983",
"7 c #C09E89",
"8 c #C2A18D",
"9 c #C6A693",
"0 c #C7A896",
"q c #C9AC9A",
"w c #CEB3A3",
"e c #D0B6A6",
"r c #D3BBAD",
"t c #D6BFB2",
"y c #D7C1B3",
"u c #D8C3B6",
"i c #DAC6BA",
"p c #DDCABE",
"a c #DECDC2",
"s c #E0CFC5",
"d c #E1D0C6",
"f c #E3D4CB",
"g c #E7DAD1",
"h c #E9DDD5",
"j c #EBDFD8",
"k c #EDE3DD",
"l c #EFE6E1",
"z c #F0E7E2",
"x c #F1EAE6",
"c c #F4EFEB",
"v c #F6F1ED",
"b c #F7F3F0",
"n c #F9F6F4",
"m c #FBF9F7",
"M c #FEFEFE",
"N c None",
/* pixels */
"NNNNNNNNNNNNNNNNNNNNNNNNNNNNNNNN",
"NNNNNNNNNNNNNNNNNNNNNNNNNNNNNNNN",
"NNNNNNNNNNNNOO+@@+OONNNNNNNNNNNN",
"NNNNNNNNNN+%:266663;%ONNNNNNNNNN",
"NNNNNNNN+%384:=&&=:473%ONNNNNNNN",
"NNNNNNN+:0,$@+++O+@o=<0:+NNNNNNN",
"NNNNNN+26$@#O%-,,-@<M1o82+NNNNNN",
"NNNNN+34O%+=ekmmMmhhi&<+42+NNNNN",
"NNNN+:7O%@8nMMMMMMMMaum=o8;+NNNN",
"NNNN%9#%+eMMMxu9ixbxhMw@%$9%NNNN",
"NNNO4>@+9MMm9& ;mu%fmfm6+@<2+NNN",
"NNN%7#@-nMm1OO1MsOrM9vMc*@$8$NNN",
"NNO;3@+rMM8O+<MaorM4 wMMq+@4;NNN",
"NNO3;+&xMk%+<MaOrM4+$&vMk%+:2ONN",
"NN+6=O:MMr 1MaorM3o%%+0fa*+=5+NN",
"NN@6*O3MM4;MsorM3X%%%%#@@%#*5@NN",
"NN@7*O3MmendorM2Xizkkkzlz:+*6@NN",
"NN+5=O,MfmaorM2@dMMMMMMMM-+=4+NN",
"NNO2;+%png$rM3o-643434nMk%+>2ONN",
"NNO:3o1njkim4O%@O++@ 7MMw+@3;NNN",
"NNN%7*nsgMn5 %%%%&%O1MMn=@%7%NNN",
"NNNO3,,&pMMc6@++OO$8nMM8++<2ONNN",
"NNNN%0.3laMMMjw66ekMMMr+%$0%NNNN",
"NNNN+:7+;@wMMMMMMMMMm9+%+7;+NNNN",
"NNNNN+34X$+>uvMMMMxt-+%+52+NNNNN",
"NNNNNN+38$@++*>43,*+@@#72ONNNNNN",
"NNNNNNN+:9>%+++OOO+@$,0;ONNNNNNN",
"NNNNNNNN+%383:=**=:482%+NNNNNNNN",
"NNNNNNNNNNO%:366653;%ONNNNNNNNNN",
"NNNNNNNNNNNNOO+@@+OONNNNNNNNNNNN",
"NNNNNNNNNNNNNNNNNNNNNNNNNNNNNNNN",
"NNNNNNNNNNNNNNNNNNNNNNNNNNNNNNNN"
};
