/* XPM */
static char *bitcoin__[] = {
/* columns rows colors chars-per-pixel */
"16 16 109 2 ",
"   c #8D4F2A",
".  c #925631",
"X  c #965C39",
"o  c #975E3B",
"O  c #975E3C",
"+  c #98603D",
"@  c #98603E",
"#  c #99603E",
"$  c #99613E",
"%  c #99613F",
"&  c #9A6341",
"*  c #9B6442",
"=  c #9B6443",
"-  c #9C6745",
";  c #9C6646",
":  c #9D6747",
">  c #9D6847",
",  c #9E6847",
"<  c #9D6848",
"1  c #9E6848",
"2  c #9E6948",
"3  c #9E6A49",
"4  c #9F6B4B",
"5  c #A06B4B",
"6  c #A06C4C",
"7  c #A06C4D",
"8  c #A06D4D",
"9  c #A26F50",
"0  c #A26F51",
"q  c #A27051",
"w  c #A37052",
"e  c #A67558",
"r  c #A8785B",
"t  c #A97A5D",
"y  c #A97B5E",
"u  c #AA7C5F",
"i  c #AB7C60",
"p  c #AB7D60",
"a  c #AB7D61",
"s  c #AB7E62",
"d  c #AC7E62",
"f  c #AC7E63",
"g  c #AC7F63",
"h  c #AC7F64",
"j  c #AD7F64",
"k  c #AD8064",
"l  c #AD8065",
"z  c #AE8166",
"x  c #AF8469",
"c  c #B1866C",
"v  c #B2886F",
"b  c #B3896F",
"n  c #B78F77",
"m  c #B9937B",
"M  c #BA957E",
"N  c #BB967F",
"B  c #BC9780",
"V  c #BC9781",
"C  c #BD9983",
"Z  c #BE9984",
"A  c #BE9A84",
"S  c #BE9B86",
"D  c #BF9C87",
"F  c #C19F8A",
"G  c #C1A08B",
"H  c #C3A28E",
"J  c #C5A592",
"K  c #C6A794",
"L  c #C7A895",
"P  c #C8AB98",
"I  c #CAAC9A",
"U  c #CCAF9E",
"Y  c #CCAF9F",
"T  c #CCB09F",
"R  c #CDB1A0",
"E  c #CDB2A1",
"W  c #CFB5A5",
"Q  c #D0B7A7",
"!  c #D1B8A8",
"~  c #D3BBAC",
"^  c #D3BBAD",
"/  c #D8C3B6",
"(  c #DCC8BD",
")  c #DCC9BD",
"_  c #DCC9BE",
"`  c #E1D0C6",
"'  c #E5D6CD",
"]  c #E5D7CE",
"[  c #E6D8CF",
"{  c #E6D9D0",
"}  c #EBDFD8",
"|  c #EEE4DE",
" . c #EEE5DF",
".. c #EEE5E0",
"X. c #EFE6E0",
"o. c #EFE6E1",
"O. c #F0E7E2",
"+. c #F1E9E4",
"@. c #F1EAE5",
"#. c #F2EAE5",
"$. c #F2ECE8",
"%. c #F3EDE9",
"&. c #F6F1ED",
"*. c #F7F3F0",
"=. c #F9F7F5",
"-. c #FEFEFE",
";. c #FFFFFE",
":. c gray100",
">. c None",
/* pixels */
">.>.>.>.>.>.>.>.>.>.>.>.>.>.>.>.",
">.>.>.>.>.4 p z z u - >.>.>.>.>.",
">.>.>.>.d z , @ + 4 b r >.>.>.>.",
">.>.>.z 6 o N / W U L u z >.>.>.",
">.>.d 9 5 O.:.[ =.*.| m 1 h >.>.",
">.6 d o o.o.& S I ! $.] o p >.>.",
">.p 1 Z :.@ Z ^ W D w :.N 1 p >.",
">.h @ ) ` C ^ T H o = V x : d >.",
">.h & Q $.U W J P *.o.+.L & z >.",
">.u 4 R o.R F o b e n :.B 1 p >.",
">., c K &.+.= .   = | o.o d >.>.",
">.>.r t C o.:.] { :.O.4 9 p >.>.",
">.>.>.z 1 & G _ ) D O 9 z >.>.>.",
">.>.>.>.h d , + # : h d >.>.>.>.",
">.>.>.>.>.6 p z h d 6 >.>.>.>.>.",
">.>.>.>.>.>.>.>.>.>.>.>.>.>.>.>."
};
