/* XPM */
static char *bitcoin__[] = {
/* columns rows colors chars-per-pixel */
"16 16 106 2 ",
"   c #98592E",
".  c #9A5B31",
"X  c #9A5C32",
"o  c #9A5D33",
"O  c #9B5D33",
"+  c #9C5C30",
"@  c #9C5E35",
"#  c #9C5F35",
"$  c #9D5F36",
"%  c #9C6036",
"&  c #9C6037",
"*  c #9D6037",
"=  c #9E6037",
"-  c #9E6137",
";  c #9D6138",
":  c #9E6138",
">  c #9F6138",
",  c #9F6238",
"<  c #9E6239",
"1  c #9F6239",
"2  c #9F633B",
"3  c #9F643B",
"4  c #A0643C",
"5  c #A0653D",
"6  c #A0653E",
"7  c #A0663E",
"8  c #A1663F",
"9  c #A1673F",
"0  c #A16740",
"q  c #A06741",
"w  c #A26740",
"e  c #A16841",
"r  c #A26841",
"t  c #A16842",
"y  c #A26942",
"u  c #A26943",
"i  c #A36943",
"p  c #A36A43",
"a  c #A26A44",
"s  c #A36A44",
"d  c #A26B45",
"f  c #A46B44",
"g  c #A46B45",
"h  c #A46C46",
"j  c #A46C47",
"k  c #A56C47",
"l  c #A26E4A",
"z  c #A56D48",
"x  c #A46E49",
"c  c #A26F4C",
"v  c #A4704C",
"b  c #A7714C",
"n  c #A6714D",
"m  c #A7724E",
"M  c #A8734F",
"N  c #A57351",
"B  c #A87756",
"V  c #A57859",
"C  c #A67959",
"Z  c #A57A5D",
"A  c #A57B5D",
"S  c #AE7B59",
"D  c #AE7C5A",
"F  c #AC8266",
"G  c #AC8367",
"H  c #B18160",
"J  c #B6896A",
"K  c #B6896B",
"L  c #B88B6E",
"P  c #B88C6E",
"I  c #B18B70",
"U  c #B28D73",
"Y  c #B88D70",
"T  c #AE907A",
"R  c #AE907B",
"E  c #BB9174",
"W  c #BC9478",
"Q  c #BE957A",
"!  c #BF987D",
"~  c #BAACA0",
"^  c #C19A80",
"/  c #C49F86",
"(  c #C5A189",
")  c #CAAA94",
"_  c #CDAE99",
"`  c #CEB09B",
"'  c #D1B4A1",
"]  c #D4BAA8",
"[  c #D6BCAB",
"{  c #D8C0AF",
"}  c #D8C1B0",
"|  c #D9C2B2",
" . c #DCC6B7",
".. c #DFCBBE",
"X. c #E2CFC3",
"o. c #E4D3C8",
"O. c #E4D4C9",
"+. c #E5D6CB",
"@. c #E6D6CB",
"#. c #E8DAD1",
"$. c #E8DBD1",
"%. c #ECE0D8",
"&. c #EEE4DD",
"*. c #EFE5DF",
"=. c #FBF8F6",
"-. c None",
/* pixels */
"-.-.-.-.-.-.-.-.-.-.-.-.-.-.-.-.",
"-.-.-.-.-.-.-.h s -.-.-.-.-.-.-.",
"-.-.-.-.y 8 p h 3 y m -.-.-.-.-.",
"-.-.-.z f y O   3 H f f I -.-.-.",
"-.-.y y y @ Y ( [ [ S 4 z -.-.-.",
"-.-.y 0 @ | $.%.&.=.L 0 3 G -.-.",
"-.-.h X ( o.W _ / M y z 0 V -.-.",
"-.y s @ | .._ ) L ^ K z 4 m -.-.",
"-.y 3 s +.@.! . W X.*.f : l -.-.",
"-.-.: H { =.Q y 0  .' : 4 V -.-.",
"-.-.s 3 S K +.#.$.] 0 f * T -.-.",
"-.-.-.y : & X h 0 @ p + Z -.-.-.",
"-.-.-.U m * : * * * * Z ~ -.-.-.",
"-.-.-.-.-.F N l v C T -.-.-.-.-.",
"-.-.-.-.-.-.-.-.-.-.-.-.-.-.-.-.",
"-.-.-.-.-.-.-.-.-.-.-.-.-.-.-.-."
};
