/* XPM */
static char *bitcoin__[] = {
/* columns rows colors chars-per-pixel */
"128 128 65 1 ",
"  c #8A4922",
". c #8F522D",
"X c #90542F",
"o c #925632",
"O c #945935",
"+ c #965D3A",
"@ c #985F3D",
"# c #99613F",
"$ c #9A6342",
"% c #9D6847",
"& c #9F6A4A",
"* c #A16D4D",
"= c #A26F50",
"- c #A57355",
"; c #A77659",
": c #A7785A",
"> c #A97A5D",
", c #AC7E62",
"< c #AD8065",
"1 c #AF8369",
"2 c #B1856B",
"3 c #B2886F",
"4 c #B58D74",
"5 c #B78F78",
"6 c #B79077",
"7 c #B79078",
"8 c #B9937C",
"9 c #BB9680",
"0 c #BE9A84",
"q c #BF9D88",
"w c #C19E89",
"e c #C3A18D",
"r c #C5A592",
"t c #C7A896",
"y c #C8AA97",
"u c #CAAC9B",
"i c #CCB09F",
"p c #CEB3A3",
"a c #D0B6A7",
"s c #D1B7A8",
"d c #D3BBAC",
"f c #D6BFB1",
"g c #D6C0B2",
"h c #D8C3B6",
"j c #DAC6BA",
"k c #DCC9BD",
"l c #DECCC1",
"z c #E0CFC4",
"x c #E1D1C7",
"c c #E4D5CB",
"v c #E6D8CF",
"b c #E7D9D1",
"n c #E9DCD5",
"m c #EADFD8",
"M c #ECE2DC",
"N c #EFE6E1",
"B c #F0E7E2",
"V c #F1EAE5",
"C c #F3EDE9",
"Z c #F6F1EE",
"A c #F7F3F0",
"S c #F9F5F3",
"D c #FBF8F7",
"F c #FFFEFE",
"G c None",
/* pixels */
"GGGGGGGGGGGGGGGGGGGGGGGGGGGGGGGGGGGGGGGGGGGGGGGGGGGGGGGGGGGGGGGGGGGGGGGGGGGGGGGGGGGGGGGGGGGGGGGGGGGGGGGGGGGGGGGGGGGGGGGGGGGGGGGG",
"GGGGGGGGGGGGGGGGGGGGGGGGGGGGGGGGGGGGGGGGGGGGGGGGGGGGGGGGGGGGGGGGGGGGGGGGGGGGGGGGGGGGGGGGGGGGGGGGGGGGGGGGGGGGGGGGGGGGGGGGGGGGGGGG",
"GGGGGGGGGGGGGGGGGGGGGGGGGGGGGGGGGGGGGGGGGGGGGGGGGGGGGGGGGGGGGGGGGGGGGGGGGGGGGGGGGGGGGGGGGGGGGGGGGGGGGGGGGGGGGGGGGGGGGGGGGGGGGGGG",
"GGGGGGGGGGGGGGGGGGGGGGGGGGGGGGGGGGGGGGGGGGGGGGGGGGGGGGGGGGGGGGGGGGGGGGGGGGGGGGGGGGGGGGGGGGGGGGGGGGGGGGGGGGGGGGGGGGGGGGGGGGGGGGGG",
"GGGGGGGGGGGGGGGGGGGGGGGGGGGGGGGGGGGGGGGGGGGGGGGGGGGGGGGGGGGGGGGGGGGGGGGGGGGGGGGGGGGGGGGGGGGGGGGGGGGGGGGGGGGGGGGGGGGGGGGGGGGGGGGG",
"GGGGGGGGGGGGGGGGGGGGGGGGGGGGGGGGGGGGGGGGGGGGGGGGGGGGGGGGGGGGGGGGGGGGGGGGGGGGGGGGGGGGGGGGGGGGGGGGGGGGGGGGGGGGGGGGGGGGGGGGGGGGGGGG",
"GGGGGGGGGGGGGGGGGGGGGGGGGGGGGGGGGGGGGGGGGGGGGGGGGGGGGGGGGGGGGGGGGGGGGGGGGGGGGGGGGGGGGGGGGGGGGGGGGGGGGGGGGGGGGGGGGGGGGGGGGGGGGGGG",
"GGGGGGGGGGGGGGGGGGGGGGGGGGGGGGGGGGGGGGGGGGGGGGGGGGGGGGGGGGGGGGGGGGGGGGGGGGGGGGGGGGGGGGGGGGGGGGGGGGGGGGGGGGGGGGGGGGGGGGGGGGGGGGGG",
"GGGGGGGGGGGGGGGGGGGGGGGGGGGGGGGGGGGGGGGGGGGGGGGGGGGGGGGGGG%%$%##@$%$%%GGGGGGGGGGGGGGGGGGGGGGGGGGGGGGGGGGGGGGGGGGGGGGGGGGGGGGGGGG",
"GGGGGGGGGGGGGGGGGGGGGGGGGGGGGGGGGGGGGGGGGGGGGGGGGGGG%$$$$##@$@##$###@##$$$$%GGGGGGGGGGGGGGGGGGGGGGGGGGGGGGGGGGGGGGGGGGGGGGGGGGGG",
"GGGGGGGGGGGGGGGGGGGGGGGGGGGGGGGGGGGGGGGGGGGGGGGG$$$###@#########@$#######@####$%GGGGGGGGGGGGGGGGGGGGGGGGGGGGGGGGGGGGGGGGGGGGGGGG",
"GGGGGGGGGGGGGGGGGGGGGGGGGGGGGGGGGGGGGGGGGGGGG%$$$@#####$#$#$$$$$$$$#$$##########$#%GGGGGGGGGGGGGGGGGGGGGGGGGGGGGGGGGGGGGGGGGGGGG",
"GGGGGGGGGGGGGGGGGGGGGGGGGGGGGGGGGGGGGGGGGG%$########$$%$#@+OOOOOXOoOO@@$$$$$########$%GGGGGGGGGGGGGGGGGGGGGGGGGGGGGGGGGGGGGGGGGG",
"GGGGGGGGGGGGGGGGGGGGGGGGGGGGGGGGGGGGGGGG$$######$$$$@XXX+$=>14888841>*$+XXO+#$$#$$####$$GGGGGGGGGGGGGGGGGGGGGGGGGGGGGGGGGGGGGGGG",
"GGGGGGGGGGGGGGGGGGGGGGGGGGGGGGGGGGGGGG%$######$$@OX+*3ukmSFFFFFFFFFFFFAnjr2*OXO#$$######$%GGGGGGGGGGGGGGGGGGGGGGGGGGGGGGGGGGGGGG",
"GGGGGGGGGGGGGGGGGGGGGGGGGGGGGGGGGGGG%$@#####$$OX$2anFFFDNzfue844478eifxVFFFDbi1#XO#$######$%GGGGGGGGGGGGGGGGGGGGGGGGGGGGGGGGGGGG",
"GGGGGGGGGGGGGGGGGGGGGGGGGGGGGGGGGGG$@$####$+X#2fAFFChq,%@OXXooooOOXOXX+#&1rkZFFVa,OX#$$$@$@@$GGGGGGGGGGGGGGGGGGGGGGGGGGGGGGGGGGG",
"GGGGGGGGGGGGGGGGGGGGGGGGGGGGGGGGG$$##@#$$+X*rBFFnr>#Xo++$$$$%$$$$$$$$$$#+OXo$,iMFFMq$o+$$$@$@$%GGGGGGGGGGGGGGGGGGGGGGGGGGGGGGGGG",
"GGGGGGGGGGGGGGGGGGGGGGGGGGGGGGGG$####@$@o=sSFVu;OXO@$$$$##$@$@##########$$$$#OX+,aZFZi&X@$@@$$@$GGGGGGGGGGGGGGGGGGGGGGGGGGGGGGGG",
"GGGGGGGGGGGGGGGGGGGGGGGGGGGGGG%#@@$$$$X*sDFb7#X+$%#$$$####@$@$@$############$$$$OX$0MFAi$o$$@##@#%GGGGGGGGGGGGGGGGGGGGGGGGGGGGGG",
"GGGGGGGGGGGGGGGGGGGGGGGGGGGGG$####$$O@rAFv2OO#$$@$@#####$#$@#$@#################$$$X+4MFC9++$@@$##$GGGGGGGGGGGGGGGGGGGGGGGGGGGGG",
"GGGGGGGGGGGGGGGGGGGGGGGGGGGG$###$$@X1mFM4OO$$###$@##@$$@@###@$###################$+$#o+8VFc:o$$@##$$GGGGGGGGGGGGGGGGGGGGGGGGGGGG",
"GGGGGGGGGGGGGGGGGGGGGGGGGGG$####%OOpFSr@o$$#####$##$####$##$$@$@################$+:+$$$X$pFDrO+$#####GGGGGGGGGGGGGGGGGGGGGGGGGGG",
"GGGGGGGGGGGGGGGGGGGGGGGGGG#####$o-nFc-X#$#######@##@#@$#@##@@$@$##########$####%XwFwX$$$@o,nFx&O$####$GGGGGGGGGGGGGGGGGGGGGGGGGG",
"GGGGGGGGGGGGGGGGGGGGGGGGG####$$X6AFrOO$####################$##$@####$#########$XwFFFqX$$$$O@pFC1X$#####GGGGGGGGGGGGGGGGGGGGGGGGG",
"GGGGGGGGGGGGGGGGGGGGGGGG######XtFC1X$$##################$$$$###@##$$$%$$#####$XwFFFFFwO$##$#o4ZFwo$$####GGGGGGGGGGGGGGGGGGGGGGGG",
"GGGGGGGGGGGGGGGGGGGGGGG$###$#OdFc%O$###$########$###$$$@OOXoO@$$$$+OXXO+#$$$#XwFFFFFFD>+$@#$$O-MFtX#####$GGGGGGGGGGGGGGGGGGGGGGG",
"GGGGGGGGGGGGGGGGGGGGGG####$#+jFh#+$#############@$$$+XO%,0ahcnMBNMblfu4>$OX+@rFFFFFFFr+#$@$@@$+$cFaO#$###$GGGGGGGGGGGGGGGGGGGGGG",
"GGGGGGGGGGGGGGGGGGGGG$###$@+jFsO#$#############$$@X+>rlZFFFFFFFFFFFFFFFDMf9%%MFFDFFFrX$#$@$@$@$++kFaO$$###$GGGGGGGGGGGGGGGGGGGGG",
"GGGGGGGGGGGGGGGGGGGG$####$OjFpX$#############$$+X=rbFFFFFFFFFFFFFFFFFFFFFFFAj54kFFFrX$$$@+@$@$$$#OhFpX$####$GGGGGGGGGGGGGGGGGGGG",
"GGGGGGGGGGGGGGGGGGG%####$osFsX$$############$+o>fAFFFFFFFFFFFFFFFFFFFFFFFFFFFFb02lrX$$$X,v=O$@$@$#OkFtX$####%GGGGGGGGGGGGGGGGGGG",
"GGGGGGGGGGGGGGGGGGG####%XrFhO$###$########$#X-gDFFFFFFFFFFFFFFFFFFFFFFFFFFFFFFFFM0OO$$O>CFN=+$@$#$@@cF0X$###$GGGGGGGGGGGGGGGGGGG",
"GGGGGGGGGGGGGGGGGG$###$o7Fv@@$###########$O@tSFFFFFFFFFFFFFFFFFFFFFFFFFFFFFFFFFFFFM1@O>CFDFN*O$###$+%MF,O$$#@$GGGGGGGGGGGGGGGGGG",
"GGGGGGGGGGGGGGGGG$###$+-SV%+$@#########$$X,nFFFFFFFFFFFFFFFFFFFFFFFFFFFFFFFFFFFFFFFF0=ZFFFFFV*+$###$O;DV%+$###%GGGGGGGGGGGGGGGGG",
"GGGGGGGGGGGGGGGGG####$@bF1O$#$$##@####$@oeDFFFFFFFFFFFFFFFFFFFFFFFFFFFFFFFFFFFFFFDFv3CFFFFFFk$######%X7FkO$$##$GGGGGGGGGGGGGGGGG",
"GGGGGGGGGGGGGGGG$###$XiFrX$$##@##$###$@+hFFFFFFFFFFFFFFFFFFFFFFFFFFFFFFFFFFFFFFFFFc1NFFFFFFj+@######$$XaFwX$###$GGGGGGGGGGGGGGGG",
"GGGGGGGGGGGGGGG%###$O1FcO$########$@$+%vFFFFFFFFFFFFFFFFFFFFFFFFFFFFFDFFFFFFFFFFFc1NFFFFDFj+#$##########MD-O$###GGGGGGGGGGGGGGGG",
"GGGGGGGGGGGGGGG#####@nD-O$####@$@$@$+%MFFFFFFFFFFFFFFFFFFFFFFZBNNCZSFFFFFFFFFFFFc1BFFFFDFhX#$#########$O1FlO$###$GGGGGGGGGGGGGGG",
"GGGGGGGGGGGGGG%@##%XeFeX$####$@#@@$+%MFDFFFFFFFFFFFFFFFFVjr2-%%$$@5wwijCFFFFFFFv1NFFFFFFs8iO$$#########$XsF5X$###%GGGGGGGGGGGGGG",
"GGGGGGGGGGGGGG$@##@*AM@$$#######$$@$nFFFFFFFFFFFFFFFFZd2%XXO++@$X0FDVcp0rzFFDFv1NFFFFFFd4DFrX$#########$@%ZM$$###$GGGGGGGGGGGGGG",
"GGGGGGGGGGGGG$###$XaF4o$########$$OjFFFFFFFFFFFFFFFCt&oO@$$$$$$XwFFFFFFF7X,hFb,VFFFFFFd4DFFF8X$$########$XqFwX%###%GGGGGGGGGGGGG",
"GGGGGGGGGGGGG$##$@-Fco$#########$XuFFFFFFFFFFFFFFDp$o@$$$###$$XqFFFFFDFrO$OO>2NFFFFFFs4DFFFFS>O$###$####$##NZ$@$##$GGGGGGGGGGGGG",
"GGGGGGGGGGGG%###$XaF2O$######$#$O3FFFFFFFFFFFFFFn>o@$$@$@$##$X0FFFFFFFrX$@%O-VFFFFFFd4DFFFFFFm$##########$X0FeX$###GGGGGGGGGGGGG",
"GGGGGGGGGGGG###$@%DvO$########$@%BFFFFFFFFFFFFFs@O$$$@$@$@$$XqFFFFFFFrX$#$O>CFFFFDFd4DFFFFFFFFaX$###########VV$###$$GGGGGGGGGGGG",
"GGGGGGGGGGGG###$XrF6O$########$XdFFFFFFFFFFFFFrX@$$@####@@$X0FFFFFFFrX$#$O>CFFFFFFf4DFFFFFFFFFF1O$########$XrF6X$###GGGGGGGGGGGG",
"GGGGGGGGGGG%#####MV#@########$O1FFFFFFFFFFFFF0X$$#@$####$$XqFFFFFFFrX%$$O>CFFFFFFf1DFFFFFFFFFFFb@#########$+*DcO$###%GGGGGGGGGGG",
"GGGGGGGGGGG$##$O1FiX$#$#####$$OcFFFFFFFFFFFFwX$$$@@$####$XqFFFFFFFro$$$O:CFFFFFFjO%cFFFFFFFFFFFF0o$##$#####$XhF-O$##$GGGGGGGGGGG",
"GGGGGGGGGGG###%XfF;O$#######$O4FFFFFFFFFFFFpX$########$%X0FFFFFFFrX$@$O:CFFFFDFkO$+$MFFFFFFFFFFFN$#$#######$O2FtX$##$GGGGGGGGGGG",
"GGGGGGGGGG%####$Zb+$#########+cFFFFFFFFFFFlO$$@$@$$@$$$o0FFFFFFFrX$$$O:CFFFFFFj+@$$O>SFFFFFFFFFFFqX$$$$+$@@$@$Cm@$$##$GGGGGGGGGG",
"GGGGGGGGGG$@#$O2FrX$#######$O2FFFFFFFFFFFC=+$@$@$@@$@$o0FFFFFDFrX$$$O:CFFFFFFj+#$#@$oqFDFFFFFFFFFn$$++$$@$@@$XdF;O$##$GGGGGGGGGG",
"GGGGGGGGGG###$XpF>O$#######$XjFFFFFFFFFFF0o$$@$$@$@@$X0FFFFFFFro$#$O;CFFFFDFkO@$####$OcFFFFFFFFFFF4O$$$@$@@$$O4FeX$##$GGGGGGGGGG",
"GGGGGGGGGG###$+nV#$#######$@=AFFFFFFFFFFc+$@@$@@$@$$o0FFFFFFFrX$#$O:CFFFFFFk+@$#@$##$O<FFFFFFFFFFFho$@@$@$$@$@%DkX$##$GGGGGGGGGG",
"GGGGGGGGG%##$@*FjX$#######$X0FFFFFFFFFFF3O$$$@$@@$$o0FFFFFFFrX$@$O;CFFFFFFk+@$@$@##@$$ohFFFFFFFFFFZ&+$$@$@$@$$OvA$@$##%GGGGGGGGG",
"GGGGGGGGG$##$O3FwX$#######$OkFFFFFFFFFFv+$$@@$@$$$o0FFFFFFFrX$$%O>CFFFFFFj+@$$$@$##$@$O<FFFFFFFFFFF7o$@$@$@$@$XpF:O$##%GGGGGGGGG",
"GGGGGGGGG$@$$XuF,O$######$+*ZFFFFFFFFFF0o$@@$@$@$X0FFFFFFFrX$$$O;CFFFFDFj+@$$@@$####$@$OxFFFFFFFFFFfo$@$@$$@$$O7F8X$#@$GGGGGGGGG",
"GGGGGGGGG$#$$XjF%@$######$O2FFFFFFFFFFA%+$$$@$$$X0FFDFFFFto$$$O;CFFFFFFj+@$$@@$@#@$#@$$o9FFFFFFFFFFm$@$@$@@$$$O;Fao%##$GGGGGGGGG",
"GGGGGGGGG$###+MM@###@@$@$$XuFFFFFFFFFFhO$#####$X0FFFFFFFtX$$$O:CFFFFDDlO@$$$+$@$##$##$$@=SFFFFFFFFFD-+$@#####$@$Dlo$##$GGGGGGGGG",
"GGGGGGGGG###@%AlO$##$#@$@$OjFFFFFFFFFF0X$$##$$X0FFFFFDFrX$$$o;CFFFFFFlO@$$+$$@$@##@##@@$+xFFFFFDFFFF5O$@#######+MM+####GGGGGGGGG",
"GGGGGGGG%##$+=FdX$######$$@nFFFFFFFFFF>O$###$X0FFFFFFFr.$$$O;CFFFFDFl+@$@$@$@$@$$@@$#$@$otDCZZZZZZCDeo$$######$OlS$#$##GGGGGGGGG",
"GGGGGGGG%##$+>FuX$##@$##@@%CFFFFFFFFFV%###$$X0FFDFFFFto$$$O;CFFFFFFk+@$$$@$+$@$@########@$&&&&&&&&&&$@$@##$###$XgF*+##$%GGGGGGGG",
"GGGGGGGG$#@$O2FqO$$@##$@$+-DFFFFFFFFFcO$##$X0FFFFFFFro$$$o;VFFFFDFk+@$$@$@@$++$@$@$@$@$@$@@@@+@++@@@$@$@######%XpF;+$##%GGGGGGGG",
"GGGGGGGG%@$$o4F8X$##$###$O,FFFFFFFFFFhO$$$X0FFFFFFFro$$$O;CFFFFFFk+@$@@$@$@$$$@$@$@$@$@$$@$$$$$$$$@$$@@$#####$$XtF,O$##%GGGGGGGG",
"GGGGGGGG$##$o9F4O$$#@###$O1FFFFFFFFDFdX%$X0FFFFFFFto$$$O;CFFFFDFk+@$@$$$$$$$$$$$$$$$$$$$$$$$$$$$$$$$$@$@######$XeF,O$###GGGGGGGG",
"GGGGGGGG###$o9F4O$####$@$O3FFFFFFFFFFpX%X0FFFFFFFro$$$o;CFFFFFFk+@$$@$OooOooooOoooOoooooooooooooooooO$@$######%XwF2O$###GGGGGGGG",
"GGGGGGGG###$X0F4O$######$O4FFFFFFFFFFiOX9FFFFFFFtX$$$O-CFFFFFFk+@$$@$o0jfgggggggggggggggggggggggggfhp$##$@$$@$$oqF1+$###GGGGGGGG",
"GGGGGGGG$##$o8F4o$######$O2FFFFFFFFFFf qFFFFFDFtX$#$O:CFFFFFFk@#$@$$XqFFFFFFFFFFFFFFFFFFFFFFFFFFFFFFM$@#@$@@$@$OeF<O$###GGGGGGGG",
"GGGGGGGG%@#$O4F7o$######$O1FFFFFFFFDFq4FFFFFFFyo$$$O;CFFFFFFkO####$oeFFFFFDFFFFDFDFFFFDFFFFDFDFFFFDFb@$#$@$@@$$XtF>+$##%GGGGGGGG",
"GGGGGGGG$$$$O2Fqo$######$O;FFFFFFFFFp9FFFFFFFt.$$$O;VFFFFDFk@#$##$oqFDFFFFFFFFFFFFFFFFFFFFFFFFFFFFFFxO$#@$@$$@$XpF-+$@$%GGGGGGGG",
"GGGGGGGG%$@$O>FuX$$$####$+*SFFFFFFFp7FFFFFFFro$#$O;CFFFFFFk@####$oqFFFFFFFFFFFFFFFFFFFFFFFFFFFFFFFFFho$$@@$@@$$XfF=+$$#%GGGGGGGG",
"GGGGGGGG%@@$@=Ffo$####$###$NFFFFFFp7FFFFFFFro$$$O;CFFFFDFk+#$##$oqFFFFFFFFFFFFFFFFFFFFFFFFFFFFFFFFDFpX$$$@@$$$$olS$+$@$GGGGGGGGG",
"GGGGGGGGG$#$@$Dlo$######$$OzFFFFFp7FFFFFFFto$$$O;VFFFFFFk+####$XqFFFFFFFFFFFFFFFFFFFFFFFFFFFFFFFFFFF0X$@@$@$@$$+MM+$@$$GGGGGGGGG",
"GGGGGGGGG@$@$OMM@@$######$XsFDFFp7FFFFFFFto$$$O-CFFFFFFk@#$###XqFFDFFFFDFFFDFFFFFDFFFFFFFFFFFFFFFFFF,O$$$@$@$@$$Dlo$$@@GGGGGGGGG",
"GGGGGGGGG$$#$XjF%@$@$@$@#$X8FFFp7FFFFFDFyX$$$O-CFFFFDFl+#$###@tFFFFFFFFFFFFFFFFFFFFFFFFFFFFFFFFFFFFC%#$#####$$O;FpX$#$$GGGGGGGGG",
"GGGGGGGGG$##$XuF,+$@@$@$##+;DFp6FFFFFFFeX$$$O;VFDFFFFl+@$####$09999999999999999990999995vFFFFFFFFFFlO$######@$o7F9O$##$GGGGGGGGG",
"GGGGGGGGG$#@$O3FqX$$@$$@###+Ms7FFFFFFFr>$@$O;CFFFFFFk+@$######oooooooOoOXXoXoooOooOXooX@VFFFFFFFFFFrX$######$$XpF:O$##$GGGGGGGGG",
"GGGGGGGGG$$$$@*FhX$$$@@$##$$:0FFFFFFFeeF-@O-VFFFFFFk@@$$######$$$$$$$$$$$%%$$$$$$$$$$%+rFFFFFFFFFFF>+$######@$+cZ$@###%GGGGGGGGG",
"GGGGGGGGGG$@$@+nV@@@@$@$##$X7DFFFFFFqeFFsX,VFFFFFFk@@$##########$@$@$@$@@$@@$$@$######%VFFFFFFFFFFb+$########@%FkO$$##GGGGGGGGGG",
"GGGGGGGGGG$$@$oaF>+$$@$@#$X0FFFFFFFweFFFD-kFDFFDFl@@$@$#######$#@$@$@@@$$@$$$@#@####$XuFFFFFFFFFFFrX$#######$O3FwX$##$GGGGGGGGGG",
"GGGGGGGGGG$@$$O1Fro$$@@$$X9FFFFFFFweFFFFFk1FFFFFl+@$#@@#########$@$@@$@$@$##$##$###$O>DFFFFFFFFFFZ*#########$osF-O$##$GGGGGGGGGG",
"GGGGGGGGGG$@$@@$Ab+$@$@$X0FFFFFFFweFFFFFFF9rFDFl+@$##$##########@$@$$@$@$@##@##@###$+bFFFFFFFFFFFfX$######$#@$CM+$###%GGGGGGGGGG",
"GGGGGGGGGGG$##$XfF-O$#$X0FFFFFFFweFFFFFFFFD,hFk+#$##############$@@$@$@$########$#$XaFFFFFFFFFFFF>+$#$#####$O2FtX$##$GGGGGGGGGGG",
"GGGGGGGGGGG###$O2Fuo$#OwFFFFFFFreFFFFFFFFFFM:i%@$###############@$$@$@$@#########$X0FFFFFFFFFFFFfX$########$XhF-@$##$GGGGGGGGGGG",
"GGGGGGGGGGG%##$##MC###$bFFFFFFe1FFFFFFFFFFFFM@O$################@$@$$@@@########$X8FFFFFFFFFFFFA-+########$+*DcO$###%GGGGGGGGGGG",
"GGGGGGGGGGGG$##$oeF4O$@*MFFDFyX%nFFFFFFFFFFFFN*O$###############$@$@@$@$######$$X0FFFFFFFFFFFFFuX$########%XeF7X$##$GGGGGGGGGGGG",
"GGGGGGGGGGGG$##$#*DvO#$O%MFFyX$O2FFFFFFFFFFFFFC,X#$#############@@$@$@$@#####%#otFFFFFFFFFFFFFn@$###########VB#@###$GGGGGGGGGGGG",
"GGGGGGGGGGGG$###$XpF2O$$O*NiX$$$.uFFFFFFFFFFFDFDeO+$$###########$$@$@$@$###$$o%kFFFFFFFFFFFFFD<O$########$X0FwX%###GGGGGGGGGGGGG",
"GGGGGGGGGGGGG$###@-FcO$#$+$@$@$O>wxFFFFFFFFFFFFFFz:X@$$#########@$$@$@$@$$$OO7VFFFFFFFFFFFFFFro$#########$#MZ%@$##$GGGGGGGGGGGGG",
"GGGGGGGGGGGGG$###$XpF4O$#$##$$O-CF0MFFFFFFFFFFFFFFDa*XO#$$$#####$@@$@$$$#oO1cFFFFFFFFFFFFFDFhO$$#######$$XwFeX$###%GGGGGGGGGGGGG",
"GGGGGGGGGGGGGG$##$+*SM##@$$@$+-VFFN0ZFFFFFFFFFFFFFFFAs,@.++$$$$$$$$$@+oo%7cFFFFFFFFFFFFFFFFb@@$@#######$+%ZB$###$$GGGGGGGGGGGGGG",
"GGGGGGGGGGGGGG$###$XeFeX$@@$@%MFFFFbeFFFFFFFFFFFFFFFFFFbi2&@OXooXXoO$;8gCFFFFFFFFFFFFFFFFFN%+$$@#######$XaF4X$###%GGGGGGGGGGGGGG",
"GGGGGGGGGGGGGGG$#####nD-+$##$+wFFFDFu7FFFFFFFFFFFFFFFFFFFFSbjdiyypflMDFFFFFFFFFFFFFFFFFDFN*O$$$@######$O1FlO$###$GGGGGGGGGGGGGGG",
"GGGGGGGGGGGGGGG%###$O<FcO$####XqFDFl%X8DFFFFFFFFFFFFFFFFFFFFFFFFFFFDFFFFFFFFFFFFFFFFFFFFM*O%@$@$$####$@#MD-+$$##GGGGGGGGGGGGGGGG",
"GGGGGGGGGGGGGGGG$###$oiFrX$$##$X0Fl++$X2ZFFFFFFFFFFFFFFFFFFFFFDFFDFFFFFFFFFFFFFFFFFFFFFc$+$$@#$@#####$osFwX$###$GGGGGGGGGGGGGGGG",
"GGGGGGGGGGGGGGGGG###$@@bF<O$###$O4%+$#%O-nFFFFFFFFFFFFFFFFFFFFFFFFFFFFFFFFFFFFFFFFFFFFaO@$@$$#@$#$##$X7FjO$$###GGGGGGGGGGGGGGGGG",
"GGGGGGGGGGGGGGGGG%@$@$+-SV%@$###$O#$##$$+#dFFFFFFFFFFFFFFFFFFFFFFFFFFFFFFFFFFFFFFFFFC7O$$@##@@$@###$O;DV%@$###%GGGGGGGGGGGGGGGGG",
"GGGGGGGGGGGGGGGGGG$@@$$O7Fc@#####$######$@X3MFFFFFFFFFFFFFFFFFFFFFFFFFFFFFFFFFFFFFFj*X$$#$##@$@$##$@%MF,O$###$GGGGGGGGGGGGGGGGGG",
"GGGGGGGGGGGGGGGGGGG####$XtFhO$$######$$@$@$O$uAFFFFFFFFFFFFFFFFFFFFFFFFFFFFFFFFFFm4O+$###########$#@cF0X$###$GGGGGGGGGGGGGGGGGGG",
"GGGGGGGGGGGGGGGGGGG%####$OsFaX#$####@@@$@$$$@X=pAFFFFFFFFFFFFFFFFFFFFFFFFFFFFFFM9@o$$###########$@OkFrX$#$##%GGGGGGGGGGGGGGGGGGG",
"GGGGGGGGGGGGGGGGGGGG$#####+hFpX$$@@$$@$@$@@$$$+X&tMFFFFFFFFFFFFFFFFFFFFDFFFFDl4@o$$############$@OhFaX$$###$GGGGGGGGGGGGGGGGGGGG",
"GGGGGGGGGGGGGGGGGGGGG######+jFsO@$$@@$@$@$@@$@$$@o@2aMFFFFFFFFFFFFFFFFFFFScr;OO@$@############$@+kFaO#$###$GGGGGGGGGGGGGGGGGGGGG",
"GGGGGGGGGGGGGGGGGGGGGG$###$@+jFh@+$$####$@@$@$@$$$$Oo@>qfvCDFFFDFFFFDNlp7=+oO$$$$@@$########$$O%cFpO$#####GGGGGGGGGGGGGGGGGGGGGG",
"GGGGGGGGGGGGGGGGGGGGGGG$###$#OsFv%O$####@$@$$@$@@$@$$$+OX+%-<378762>=$+oO+$$$$$@@$$@#######$$o-MFuX#####$GGGGGGGGGGGGGGGGGGGGGGG",
"GGGGGGGGGGGGGGGGGGGGGGGG####$#OtFV1X$$$#$@$@@$@$$@$@@$$$$$@OOOoOOoO++@$$$$@@@@@$@$@$#####$$#X4ZF0X$$####GGGGGGGGGGGGGGGGGGGGGGGG",
"GGGGGGGGGGGGGGGGGGGGGGGGG####$$X6ZFrO+$#@$@$$@$@$@@@$@$@@$$$$$$$$$$$$@@$@$@$$@$@$@$@####$$O+pFC1X$#####GGGGGGGGGGGGGGGGGGGGGGGGG",
"GGGGGGGGGGGGGGGGGGGGGGGGGG$####$O-nFc=X#$#######@$@$$@$@$@$@@$++$@@$@$@$$@$@$@@$@$###$@$#X>nFx%O%####$GGGGGGGGGGGGGGGGGGGGGGGGGG",
"GGGGGGGGGGGGGGGGGGGGGGGGGGG$####$O#iFDr@o$$#####$@$@@$@$@$$@$@$$@$$@$@$@@$@$$@$@$@###$$o$pFDrO@$####$GGGGGGGGGGGGGGGGGGGGGGGGGGG",
"GGGGGGGGGGGGGGGGGGGGGGGGGGGG$####$#X1mFM4OO$$###@$@$$@@$@$@$@$$@$@@$$@@$$@$@@$@$@#$$$o+8VFv:X#$####$GGGGGGGGGGGGGGGGGGGGGGGGGGGG",
"GGGGGGGGGGGGGGGGGGGGGGGGGGGGG$####$$O+rAFv2OO#$$$@$@@$@@$@$@@$@$@$$@@$@@@$@$$@$@$$@o+4MFC0OO%####$$GGGGGGGGGGGGGGGGGGGGGGGGGGGGG",
"GGGGGGGGGGGGGGGGGGGGGGGGGGGGGG%#####$#X*aDFb6#X+@$$@$@@$@$$@$@$@@$@@$@$@@@$@$$$@+X$9MFSu$o$$###@$%GGGGGGGGGGGGGGGGGGGGGGGGGGGGGG",
"GGGGGGGGGGGGGGGGGGGGGGGGGGGGGGGG######$@X=sSFCu;+oO$$$$$$@$$$@@$$@$$@$@$$$$$@Oo+>aZFZu&o#$#####$GGGGGGGGGGGGGGGGGGGGGGGGGGGGGGGG",
"GGGGGGGGGGGGGGGGGGGGGGGGGGGGGGGGG%######$+X*rBFFnt:@oo++@$$$$$$$$$$$$$$$@+XX$,iMFFMq%o+$#####$%GGGGGGGGGGGGGGGGGGGGGGGGGGGGGGGGG",
"GGGGGGGGGGGGGGGGGGGGGGGGGGGGGGGGGGG$#####$$@X@2fZFFCjq,&+OXXXoOOoOooooO+&1rkZFFCa<+X@$$@####$GGGGGGGGGGGGGGGGGGGGGGGGGGGGGGGGGGG",
"GGGGGGGGGGGGGGGGGGGGGGGGGGGGGGGGGGGG%#@@$##$$#OX%2amFFFFNxfue844478eifcBFFFFbi,$XO$$$@###@$%GGGGGGGGGGGGGGGGGGGGGGGGGGGGGGGGGGGG",
"GGGGGGGGGGGGGGGGGGGGGGGGGGGGGGGGGGGGGG%$@#####$$@OXO*2tjnSFFFFFFFFFFFFAnhr2%OXO@$$##@$#$$%GGGGGGGGGGGGGGGGGGGGGGGGGGGGGGGGGGGGGG",
"GGGGGGGGGGGGGGGGGGGGGGGGGGGGGGGGGGGGGGGG$$######@$$$@OXO+$=>24888741>&$+XoO@$$$$####$$$$GGGGGGGGGGGGGGGGGGGGGGGGGGGGGGGGGGGGGGGG",
"GGGGGGGGGGGGGGGGGGGGGGGGGGGGGGGGGGGGGGGGGG$$#######@$$$$$#+OOOOXOoOOO+@$$$$$#######$$$GGGGGGGGGGGGGGGGGGGGGGGGGGGGGGGGGGGGGGGGGG",
"GGGGGGGGGGGGGGGGGGGGGGGGGGGGGGGGGGGGGGGGGGGGG%$$#$@$######$$$$$$$$$$$$$@#####@##$#%GGGGGGGGGGGGGGGGGGGGGGGGGGGGGGGGGGGGGGGGGGGGG",
"GGGGGGGGGGGGGGGGGGGGGGGGGGGGGGGGGGGGGGGGGGGGGGGG$$$@##@#########@$@$$+$@#@###$$%GGGGGGGGGGGGGGGGGGGGGGGGGGGGGGGGGGGGGGGGGGGGGGGG",
"GGGGGGGGGGGGGGGGGGGGGGGGGGGGGGGGGGGGGGGGGGGGGGGGGGGG%$$$#####@##$@$@@$@$$$$%GGGGGGGGGGGGGGGGGGGGGGGGGGGGGGGGGGGGGGGGGGGGGGGGGGGG",
"GGGGGGGGGGGGGGGGGGGGGGGGGGGGGGGGGGGGGGGGGGGGGGGGGGGGGGGGGG%%%%##@$&$$&GGGGGGGGGGGGGGGGGGGGGGGGGGGGGGGGGGGGGGGGGGGGGGGGGGGGGGGGGG",
"GGGGGGGGGGGGGGGGGGGGGGGGGGGGGGGGGGGGGGGGGGGGGGGGGGGGGGGGGGGGGGGGGGGGGGGGGGGGGGGGGGGGGGGGGGGGGGGGGGGGGGGGGGGGGGGGGGGGGGGGGGGGGGGG",
"GGGGGGGGGGGGGGGGGGGGGGGGGGGGGGGGGGGGGGGGGGGGGGGGGGGGGGGGGGGGGGGGGGGGGGGGGGGGGGGGGGGGGGGGGGGGGGGGGGGGGGGGGGGGGGGGGGGGGGGGGGGGGGGG",
"GGGGGGGGGGGGGGGGGGGGGGGGGGGGGGGGGGGGGGGGGGGGGGGGGGGGGGGGGGGGGGGGGGGGGGGGGGGGGGGGGGGGGGGGGGGGGGGGGGGGGGGGGGGGGGGGGGGGGGGGGGGGGGGG",
"GGGGGGGGGGGGGGGGGGGGGGGGGGGGGGGGGGGGGGGGGGGGGGGGGGGGGGGGGGGGGGGGGGGGGGGGGGGGGGGGGGGGGGGGGGGGGGGGGGGGGGGGGGGGGGGGGGGGGGGGGGGGGGGG",
"GGGGGGGGGGGGGGGGGGGGGGGGGGGGGGGGGGGGGGGGGGGGGGGGGGGGGGGGGGGGGGGGGGGGGGGGGGGGGGGGGGGGGGGGGGGGGGGGGGGGGGGGGGGGGGGGGGGGGGGGGGGGGGGG",
"GGGGGGGGGGGGGGGGGGGGGGGGGGGGGGGGGGGGGGGGGGGGGGGGGGGGGGGGGGGGGGGGGGGGGGGGGGGGGGGGGGGGGGGGGGGGGGGGGGGGGGGGGGGGGGGGGGGGGGGGGGGGGGGG",
"GGGGGGGGGGGGGGGGGGGGGGGGGGGGGGGGGGGGGGGGGGGGGGGGGGGGGGGGGGGGGGGGGGGGGGGGGGGGGGGGGGGGGGGGGGGGGGGGGGGGGGGGGGGGGGGGGGGGGGGGGGGGGGGG",
"GGGGGGGGGGGGGGGGGGGGGGGGGGGGGGGGGGGGGGGGGGGGGGGGGGGGGGGGGGGGGGGGGGGGGGGGGGGGGGGGGGGGGGGGGGGGGGGGGGGGGGGGGGGGGGGGGGGGGGGGGGGGGGGG"
};
