<!DOCTYPE svg PUBLIC "-//W3C//DTD SVG 20010904//EN" "http://www.w3.org/TR/2001/REC-SVG-20010904/DTD/svg10.dtd">
<svg version="1.0" xmlns="http://www.w3.org/2000/svg" width="1024px" height="1024px" viewBox="0 0 10240 10240" preserveAspectRatio="xMidYMid meet">
<g id="layer101" fill="#fffffe" stroke="none">
 <path d="M4725 9024 c-331 -36 -661 -113 -963 -226 -777 -289 -1445 -818 -1911 -1513 -364 -543 -578 -1138 -646 -1797 -20 -194 -20 -582 0 -776 36 -346 114 -683 232 -996 323 -859 954 -1595 1758 -2051 472 -268 993 -433 1555 -490 209 -22 678 -17 865 9 905 125 1672 502 2301 1130 629 629 1015 1418 1130 2306 34 266 34 693 -1 965 -112 879 -502 1672 -1130 2300 -653 654 -1476 1045 -2397 1140 -185 19 -612 18 -793 -1z m890 -158 c452 -64 829 -179 1210 -369 370 -185 700 -421 990 -712 627 -627 1014 -1454 1095 -2340 14 -154 14 -536 0 -690 -93 -1024 -599 -1971 -1390 -2606 -600 -482 -1290 -760 -2060 -830 -171 -15 -658 -6 -815 15 -460 64 -857 188 -1250 390 -736 378 -1312 966 -1675 1707 -147 300 -245 590 -309 914 -59 296 -65 368 -65 755 0 387 6 459 65 755 278 1398 1328 2524 2709 2905 190 53 455 100 695 124 22 2 184 3 360 1 234 -2 352 -7 440 -19z"/>
 <path d="M4897 8020 c-849 -72 -1616 -501 -2124 -1190 -68 -93 -169 -247 -180 -277 -4 -10 94 -115 308 -329 173 -173 317 -314 321 -314 4 0 35 53 67 118 280 559 786 953 1391 1086 820 179 1668 -158 2133 -849 71 -107 217 -384 217 -414 0 -8 -264 -11 -1029 -11 -567 0 -1032 -4 -1035 -8 -3 -5 154 -167 347 -360 l352 -352 1180 2 1180 3 -2 127 c-8 560 -243 1188 -625 1670 -97 123 -340 368 -458 462 -426 339 -923 550 -1464 621 -148 19 -437 27 -579 15z"/>
 <path d="M2607 7262 l-157 -157 140 -140 c87 -86 143 -136 149 -130 5 6 39 48 76 95 38 47 99 119 136 161 l68 75 -127 127 -127 127 -158 -158z"/>
 <path d="M2060 6685 l-155 -155 1710 -1710 1710 -1711 50 7 c122 15 330 66 433 105 25 10 -40 76 -1779 1815 -992 992 -1806 1804 -1809 1804 -3 0 -75 -70 -160 -155z"/>
 <path d="M3644 6458 c-60 -62 -132 -153 -189 -236 l-49 -73 1859 -1859 1860 -1860 158 158 157 157 -1878 1878 -1877 1877 -41 -42z"/>
 <path d="M2352 5997 c-17 -20 -88 -304 -106 -427 -62 -410 -43 -796 59 -1185 132 -505 385 -944 760 -1320 408 -409 907 -680 1471 -799 361 -76 807 -76 1168 0 345 73 692 214 972 395 l96 62 -311 311 -310 310 -138 -66 c-76 -37 -172 -78 -213 -93 -101 -36 -284 -80 -400 -96 -122 -17 -438 -17 -560 0 -364 51 -725 208 -1010 438 -102 82 -272 259 -349 363 -279 375 -426 855 -404 1315 l5 90 -359 358 c-296 295 -362 356 -371 344z"/>
 <path d="M7133 4708 c-5 -7 -21 -58 -35 -114 -81 -313 -253 -629 -465 -854 l-62 -66 305 -305 305 -304 55 60 c351 382 576 788 699 1259 41 158 69 302 61 322 -7 20 -848 21 -863 2z"/>
 <path d="M6450 2485 c-47 -24 -137 -65 -200 -91 -63 -26 -121 -52 -127 -58 -10 -9 42 -67 222 -246 l235 -235 157 158 158 157 -180 179 -180 180 -85 -44z"/>
 </g>
<g id="layer102" fill="#99613f" stroke="none">
 <path d="M4780 9459 c-935 -76 -1823 -453 -2530 -1075 -1171 -1030 -1702 -2572 -1414 -4104 234 -1243 1019 -2338 2134 -2980 910 -523 2022 -697 3055 -479 689 145 1294 434 1860 887 154 124 513 483 637 637 573 715 892 1512 968 2420 13 154 13 516 0 670 -76 908 -395 1705 -968 2420 -124 154 -483 513 -637 637 -718 575 -1527 897 -2429 968 -150 12 -524 11 -676 -1z m738 -454 c1437 -149 2657 -1043 3221 -2362 232 -542 333 -1107 309 -1721 -37 -968 -449 -1904 -1142 -2598 -618 -617 -1392 -996 -2291 -1120 -187 -26 -656 -31 -865 -9 -1189 122 -2222 739 -2879 1720 -364 543 -578 1138 -646 1797 -20 194 -20 582 0 776 111 1069 625 2013 1466 2688 129 104 387 275 544 362 456 250 963 409 1490 466 181 19 608 20 793 1z"/>
 <path d="M4815 8904 c-240 -24 -505 -71 -695 -124 -1237 -341 -2232 -1296 -2623 -2515 -51 -158 -72 -240 -106 -410 -59 -296 -65 -368 -65 -755 0 -387 6 -459 65 -755 298 -1496 1488 -2686 2984 -2984 259 -52 370 -63 675 -68 288 -5 429 2 640 33 1416 207 2608 1210 3065 2579 83 248 150 575 175 850 14 154 14 536 0 690 -81 892 -467 1713 -1105 2350 -543 543 -1224 908 -1960 1049 -264 51 -352 58 -690 61 -176 2 -338 1 -360 -1z m661 -919 c541 -71 1039 -282 1464 -621 118 -94 341 -319 438 -442 377 -476 596 -1052 628 -1656 l7 -126 -1174 0 -1174 0 -340 340 -340 340 1035 2 c1029 3 1035 3 1032 23 -2 11 -34 83 -71 160 -312 646 -917 1078 -1631 1165 -109 13 -334 13 -458 -1 -685 -74 -1306 -508 -1619 -1132 l-55 -110 -304 304 c-167 167 -304 308 -304 313 0 15 109 185 183 286 498 676 1260 1099 2104 1170 142 12 431 4 579 -15z m-2549 -899 c-56 -63 -167 -197 -194 -236 -2 -2 -62 54 -133 125 l-130 130 147 147 148 148 117 -117 117 -116 -72 -81z m1087 -2055 c1694 -1694 1789 -1790 1765 -1799 -88 -34 -288 -82 -404 -96 l-50 -7 -1700 1701 -1700 1700 145 145 c80 80 147 145 150 145 3 0 810 -805 1794 -1789z m3259 -2433 l-148 -148 -1850 1850 -1849 1849 57 83 c31 46 89 121 128 167 l72 83 1868 -1868 1869 -1869 -147 -147z m-4216 2607 c-22 -460 125 -939 404 -1315 76 -103 266 -300 369 -383 285 -230 645 -387 1010 -438 122 -17 438 -17 560 0 116 16 299 60 400 96 41 15 137 56 213 93 l138 66 294 -294 c162 -162 295 -298 295 -301 0 -12 -159 -110 -284 -175 -308 -161 -659 -268 -1006 -308 -175 -21 -485 -21 -660 0 -649 75 -1256 368 -1715 829 -564 566 -868 1333 -842 2125 8 256 33 424 99 673 l31 119 349 -349 350 -348 -5 -90z m4918 -547 c-14 -90 -58 -278 -91 -386 -127 -419 -333 -775 -658 -1137 l-45 -50 -295 294 -295 295 62 66 c216 229 400 573 473 883 l18 77 419 0 419 0 -7 -42z m-1248 -2635 l-147 -148 -224 224 -225 224 122 52 c67 28 158 70 202 92 l80 42 170 -170 170 -169 -148 -147z"/>
 </g>

</svg>