<?xml version="1.0" standalone="no"?>
<!DOCTYPE svg PUBLIC "-//W3C//DTD SVG 20010904//EN"
 "http://www.w3.org/TR/2001/REC-SVG-20010904/DTD/svg10.dtd">
<svg version="1.0" xmlns="http://www.w3.org/2000/svg"
 width="1024.000000pt" height="1024.000000pt" viewBox="0 0 1024.000000 1024.000000"
 preserveAspectRatio="xMidYMid meet">

<g transform="translate(0.000000,1024.000000) scale(0.100000,-0.100000)"
fill="#9F643C" stroke="none">
<path d="M4635 9314 c-5 -2 -68 -10 -140 -18 -186 -21 -344 -44 -385 -55 -19
-5 -78 -19 -130 -31 -103 -24 -148 -37 -285 -82 -243 -80 -336 -118 -515 -208
-52 -27 -108 -55 -125 -64 -16 -9 -33 -16 -37 -16 -7 0 -214 -125 -310 -188
-171 -111 -182 -122 -120 -122 21 0 42 -4 48 -9 9 -9 102 -38 139 -43 52 -8
-21 -105 -136 -183 -45 -30 -209 -164 -238 -194 -58 -61 -59 -59 26 -44 43 7
85 17 93 22 9 5 31 12 50 16 19 4 41 11 50 16 26 14 241 79 260 79 10 0 21 4
24 9 7 11 76 22 101 15 11 -3 45 -41 74 -85 30 -43 57 -79 61 -79 4 0 13 -13
20 -30 7 -16 16 -30 21 -30 4 0 10 -8 13 -17 4 -10 22 -36 42 -58 63 -72 165
-241 164 -272 -1 -23 -169 -163 -195 -163 -3 0 -13 -6 -21 -14 -12 -13 -244
-172 -291 -201 -9 -5 -22 -14 -27 -18 -32 -25 -214 -139 -254 -159 -25 -12
-55 -31 -66 -40 -24 -19 -114 -86 -146 -108 -12 -8 -31 -23 -42 -32 -12 -10
-24 -18 -28 -18 -4 0 -17 -8 -28 -17 -64 -53 -472 -326 -618 -413 -49 -30 -91
-56 -94 -59 -3 -3 -31 -23 -62 -44 -32 -20 -58 -40 -58 -43 0 -3 10 -19 22
-34 51 -63 74 -94 87 -118 12 -23 86 -129 108 -157 5 -5 20 -28 33 -50 13 -22
27 -42 30 -45 4 -3 21 -30 38 -60 18 -30 55 -86 82 -125 28 -38 69 -101 92
-140 23 -38 47 -74 55 -78 7 -4 13 -13 13 -18 0 -6 6 -16 12 -23 7 -8 20 -24
28 -36 8 -12 39 -54 67 -94 29 -39 54 -75 56 -81 2 -5 34 5 71 23 37 18 70 32
74 32 6 0 91 32 137 51 11 5 42 13 69 19 48 10 53 9 120 -26 39 -20 84 -45 99
-56 16 -11 29 -19 31 -17 2 2 8 70 14 151 12 142 17 176 49 323 36 167 144
435 209 522 13 17 24 34 24 38 0 15 109 167 168 233 35 40 76 86 91 104 14 17
37 40 50 52 14 12 52 46 85 77 75 70 122 109 130 109 5 0 66 43 111 78 27 21
184 112 193 112 6 0 26 9 44 19 42 24 207 89 273 108 237 68 369 86 635 86
152 0 264 -6 345 -17 156 -21 152 -21 168 17 57 128 91 197 98 197 7 0 48 61
62 94 5 13 3 22 -5 27 -14 9 -58 1 -73 -12 -5 -5 -17 -9 -27 -9 -10 0 -43 -9
-73 -19 l-55 -20 -14 27 c-29 57 -26 168 7 347 9 46 18 71 28 72 21 4 169
-212 169 -247 0 -16 38 -98 49 -104 5 -3 41 19 80 49 141 109 204 135 324 135
50 0 66 4 80 20 22 27 51 25 80 -3 19 -20 30 -23 67 -18 42 6 47 10 71 56 14
28 32 68 41 91 l17 41 -45 42 c-41 40 -74 50 -74 21 0 -19 -56 -79 -120 -130
-24 -19 -52 -43 -62 -52 -37 -37 -70 -19 -114 62 -45 83 -56 93 -101 87 -161
-23 -173 -21 -173 38 0 95 10 108 230 290 47 38 91 75 98 82 7 7 17 13 21 13
4 0 19 9 32 21 25 22 160 112 216 145 28 16 39 17 76 7 23 -7 66 -15 95 -19
29 -4 55 -11 58 -15 3 -5 14 -9 26 -9 11 0 34 -6 51 -14 18 -7 55 -21 82 -31
45 -16 83 -32 170 -70 17 -7 41 -16 55 -20 14 -4 28 -12 31 -17 4 -7 13 -7 25
0 11 5 57 12 103 16 46 4 99 13 118 21 66 28 78 17 98 -85 4 -19 11 -39 15
-45 4 -5 11 -32 15 -60 4 -27 10 -54 15 -60 4 -5 12 -35 18 -65 39 -196 63
-296 81 -330 5 -9 12 -31 16 -50 4 -19 12 -41 18 -48 6 -7 11 -57 12 -110 1
-53 7 -108 14 -122 14 -31 22 -80 61 -355 5 -38 14 -133 20 -210 6 -77 14
-158 20 -180 5 -22 12 -65 15 -95 8 -74 28 -160 37 -160 4 0 13 10 19 23 17
32 141 230 153 244 25 29 264 378 365 533 20 30 39 57 44 58 4 2 7 9 7 15 0
17 88 147 100 147 18 0 22 -22 6 -39 -9 -10 -16 -23 -16 -29 0 -7 -4 -12 -9
-12 -5 0 -14 -12 -19 -27 -6 -16 -38 -66 -72 -113 -33 -47 -66 -96 -73 -110
-14 -28 -46 -79 -62 -96 -5 -6 -16 -20 -23 -30 -7 -11 -42 -62 -79 -114 -196
-282 -325 -486 -321 -508 2 -10 22 -23 50 -33 26 -8 51 -19 55 -22 3 -4 14 -7
23 -7 21 0 134 -35 177 -55 17 -8 38 -15 46 -15 9 0 18 -4 21 -9 3 -5 28 -14
56 -21 27 -7 50 -16 50 -21 0 -5 7 -9 16 -9 9 0 35 -9 58 -19 23 -11 59 -27
81 -36 22 -9 49 -20 60 -25 39 -17 119 -40 137 -40 11 0 20 10 24 27 4 15 13
38 20 52 8 14 14 32 14 39 0 8 7 26 15 40 8 15 24 50 35 77 33 78 51 118 60
140 5 11 18 42 28 70 11 27 24 51 31 53 14 5 15 -54 1 -63 -5 -3 -10 -13 -10
-21 0 -13 -11 -41 -50 -129 -5 -11 -18 -42 -30 -70 -12 -27 -25 -59 -30 -70
-60 -135 -61 -142 -22 -151 15 -3 36 -9 47 -14 11 -5 61 -14 110 -20 96 -12
185 -37 197 -54 14 -21 -8 -25 -57 -10 -28 9 -84 22 -125 30 -71 12 -150 28
-197 39 -20 5 -21 4 -8 -39 7 -24 18 -52 24 -62 5 -11 16 -32 24 -49 7 -16 28
-57 46 -90 18 -33 43 -78 54 -100 12 -22 24 -42 27 -45 3 -3 19 -32 35 -65 16
-33 45 -87 66 -121 31 -52 59 -104 122 -234 7 -14 23 -26 35 -28 24 -4 30 -27
8 -35 -29 -11 -52 6 -79 61 -35 72 -88 170 -125 231 -15 25 -34 62 -42 81 -8
19 -25 53 -39 75 -14 22 -30 49 -37 60 -26 47 -88 162 -100 185 -8 14 -14 29
-14 33 0 4 -8 27 -19 50 -10 23 -21 50 -24 60 -7 18 -13 22 -127 63 -41 14
-88 33 -105 40 -16 7 -55 23 -85 34 -30 12 -59 25 -65 30 -5 4 -46 19 -90 34
-44 15 -87 30 -95 35 -27 15 -160 53 -171 49 -12 -4 25 -44 107 -118 87 -77
108 -94 149 -125 65 -49 95 -84 95 -111 0 -36 -15 -49 -281 -234 -65 -44 -128
-90 -140 -100 -49 -40 -135 -100 -144 -100 -4 0 -21 -6 -38 -14 -18 -8 -40
-16 -49 -20 -21 -6 -25 -65 -6 -84 8 -8 56 -12 149 -12 164 0 189 -7 189 -51
0 -17 -7 -45 -14 -62 -8 -18 -25 -61 -36 -97 -12 -36 -31 -85 -42 -110 -38
-88 -46 -106 -63 -153 -10 -26 -22 -50 -26 -53 -5 -3 -9 -13 -9 -22 -1 -9 -9
-35 -20 -57 -11 -22 -19 -45 -20 -51 0 -11 -21 -63 -56 -141 -8 -17 -14 -35
-14 -40 0 -5 -11 -33 -25 -61 -14 -29 -25 -54 -25 -57 0 -4 -8 -25 -19 -48
-10 -23 -33 -82 -51 -132 -29 -81 -54 -143 -80 -200 -5 -11 -19 -45 -30 -75
-11 -30 -25 -64 -30 -75 -5 -11 -18 -42 -30 -70 -12 -27 -28 -64 -36 -82 -8
-17 -14 -37 -14 -45 0 -7 -6 -25 -14 -39 -7 -15 -24 -60 -36 -100 -13 -44 -38
-95 -61 -126 -21 -28 -43 -69 -48 -90 -6 -21 -17 -63 -24 -95 -17 -66 -34 -90
-96 -140 -25 -21 -71 -61 -101 -90 -31 -29 -74 -67 -96 -85 -64 -52 -217 -153
-231 -153 -7 0 -13 -4 -13 -10 0 -5 -6 -10 -12 -10 -7 0 -26 -7 -42 -15 -16
-9 -33 -12 -37 -8 -4 4 -12 33 -17 63 -6 30 -18 87 -27 125 -46 205 -72 357
-81 460 -8 100 -7 99 -59 64 -68 -46 -232 -125 -310 -149 -39 -12 -81 -25 -95
-30 -33 -11 -194 -47 -245 -54 -575 -82 -1151 -8 -1525 196 -41 23 -93 50
-115 61 -21 11 -63 37 -92 58 -29 22 -56 39 -60 39 -9 0 -73 -98 -73 -111 0
-5 -4 -9 -9 -9 -5 0 -14 -15 -22 -32 -7 -18 -16 -35 -19 -38 -12 -10 -69 -109
-90 -157 -12 -26 -35 -75 -51 -109 -16 -33 -29 -64 -29 -67 0 -8 -73 -160 -80
-167 -3 -3 -15 -25 -26 -50 -77 -161 -160 -326 -166 -328 -5 -2 -8 -9 -8 -15
0 -10 -60 -131 -114 -232 -9 -16 -16 -33 -16 -37 0 -4 -22 -53 -49 -110 -27
-57 -57 -122 -67 -145 -18 -42 -44 -58 -44 -27 0 18 8 37 95 219 34 72 66 141
70 155 4 14 10 27 14 30 3 3 44 82 91 175 47 94 88 172 93 173 4 2 7 9 7 15 0
7 35 84 79 172 76 155 117 243 148 315 8 19 19 45 25 57 15 30 5 49 -29 56
-15 3 -57 13 -93 22 -115 29 -424 88 -600 116 -78 12 -150 37 -150 53 0 7 -3
7 -8 -1 -9 -14 3 -213 18 -293 5 -30 14 -109 20 -175 5 -66 14 -136 20 -155 5
-19 14 -69 20 -110 6 -41 17 -115 25 -165 27 -159 66 -405 85 -538 6 -41 18
-79 30 -94 23 -29 18 -48 -9 -34 -32 17 -45 42 -53 99 -10 78 -34 239 -52 347
-38 234 -46 282 -51 305 -3 14 -13 79 -21 145 -8 66 -22 167 -30 225 -8 58
-21 170 -29 250 -24 239 -29 252 -107 332 -42 43 -88 102 -88 112 0 7 -61 107
-75 123 -5 7 -15 19 -22 27 -7 8 -19 29 -27 47 -16 35 -37 70 -47 79 -9 9 -67
107 -115 196 -55 103 -76 170 -74 239 1 56 28 224 38 240 4 5 12 33 18 60 14
59 36 140 58 210 44 145 44 133 11 160 -17 13 -39 27 -50 31 -11 4 -22 9 -25
13 -5 6 -17 13 -145 81 -38 20 -93 51 -121 68 -28 18 -54 32 -57 32 -3 0 -51
27 -106 60 -56 33 -105 60 -110 60 -4 0 -27 14 -50 30 -23 17 -59 40 -79 51
-20 11 -64 38 -97 60 -33 21 -67 42 -75 46 -40 17 -180 115 -180 125 0 8 -3 8
-9 3 -37 -40 -50 -722 -19 -975 33 -268 55 -394 94 -540 28 -104 73 -255 85
-285 4 -11 20 -56 34 -100 14 -44 33 -94 41 -112 8 -17 14 -34 14 -38 0 -24
176 -376 253 -505 80 -134 89 -150 100 -164 4 -6 29 -45 56 -86 26 -41 60 -88
75 -105 14 -16 39 -48 53 -70 120 -178 541 -600 733 -735 43 -30 56 -40 78
-61 34 -32 356 -239 372 -239 5 0 10 -4 12 -9 5 -14 474 -241 498 -241 7 0 26
-6 43 -14 65 -27 90 -36 204 -74 158 -53 223 -72 239 -72 8 0 22 -4 32 -9 9
-6 60 -17 112 -26 52 -9 131 -23 175 -31 115 -21 292 -44 420 -53 141 -10 562
-4 640 9 33 5 101 14 150 20 124 14 381 58 455 79 19 6 62 18 95 27 94 26 268
83 287 94 10 6 23 10 29 10 6 0 25 6 42 14 18 8 50 20 72 26 22 7 122 52 222
101 101 49 185 89 189 89 3 0 25 14 49 30 24 17 47 30 51 30 8 0 164 99 174
110 3 3 37 24 75 47 39 22 84 54 100 69 17 15 66 54 110 87 44 33 112 87 150
120 89 77 339 328 429 429 67 76 77 89 145 185 19 26 40 53 47 58 17 14 104
143 104 154 0 5 6 16 13 23 6 7 24 32 40 56 15 23 38 59 52 80 14 21 25 42 25
47 0 4 11 23 25 41 14 18 25 35 25 38 0 3 42 93 94 199 52 106 100 214 107
240 6 26 15 50 20 53 5 3 9 12 9 21 0 8 7 29 14 46 16 33 75 213 94 282 6 22
17 63 25 90 8 28 20 84 27 125 7 41 16 84 20 95 9 21 24 117 40 265 6 47 15
114 21 149 14 76 18 460 8 621 -15 228 -73 592 -122 770 -9 30 -21 75 -27 100
-6 25 -15 52 -19 60 -5 9 -12 31 -16 50 -4 19 -11 41 -15 50 -4 8 -18 42 -30
75 -12 33 -28 74 -36 92 -8 17 -14 36 -14 43 0 13 -11 37 -66 157 -19 39 -34
76 -34 81 0 6 -3 12 -7 14 -5 2 -35 57 -67 123 -33 66 -63 122 -68 123 -4 2
-8 7 -8 12 0 11 -103 174 -112 178 -5 2 -8 8 -8 13 0 12 -79 132 -114 174 -37
44 -38 45 -86 110 -148 201 -544 592 -715 708 -22 15 -56 40 -75 57 -19 17
-64 49 -100 72 -36 22 -87 56 -115 74 -108 70 -236 142 -365 206 -140 69 -268
128 -277 128 -3 0 -19 6 -36 14 -18 8 -68 27 -112 41 -44 14 -89 30 -100 34
-30 12 -181 57 -285 85 -143 38 -243 55 -530 93 -106 14 -719 28 -745 17z
m545 -219 c0 -22 -68 -85 -92 -85 -19 0 -73 -45 -283 -235 -38 -34 -83 -74
-100 -88 -125 -104 -181 -153 -190 -163 -5 -6 -44 -37 -85 -69 -41 -32 -91
-72 -110 -89 -20 -17 -49 -41 -65 -53 -17 -13 -48 -37 -70 -54 -22 -17 -53
-40 -68 -52 -15 -12 -38 -30 -49 -39 -12 -10 -24 -18 -27 -18 -3 0 -21 -14
-40 -30 -38 -34 -48 -32 -101 27 -36 38 -80 121 -120 223 -12 30 -28 70 -36
88 -8 18 -14 37 -14 42 0 10 -25 61 -109 224 -28 55 -51 105 -51 112 0 7 -5
14 -11 16 -6 2 -12 28 -12 58 l-2 55 135 12 c74 6 212 18 305 27 94 9 202 18
240 21 39 4 111 11 160 16 114 12 284 25 448 34 99 6 127 10 127 21 0 11 22
14 110 14 90 0 110 -3 110 -15z m1028 -31 c16 -5 22 -14 22 -33 0 -35 -7 -42
-61 -68 -25 -13 -54 -32 -65 -44 -32 -35 -89 -59 -144 -59 -27 0 -50 4 -50 9
0 5 -8 12 -17 15 -20 7 -59 63 -68 98 -10 38 21 57 103 64 40 4 75 11 78 15 6
10 167 12 202 3z m-1133 -674 c8 -7 15 -23 15 -35 0 -27 -53 -62 -93 -62 -15
0 -37 -8 -49 -17 -81 -58 -97 -66 -122 -56 -31 11 -72 75 -81 124 -13 66 -13
66 159 62 106 -2 160 -7 171 -16z m129 -602 c22 -32 22 -153 0 -162 -28 -11
-52 -6 -89 16 -35 20 -37 23 -31 60 4 22 12 46 19 54 49 61 75 69 101 32z
m-3175 -1794 c13 -9 52 -19 89 -22 72 -6 121 -22 142 -47 11 -13 10 -18 -4
-34 -36 -40 -111 -32 -162 17 -16 16 -50 39 -76 52 -48 24 -64 50 -30 50 10 0
28 -7 41 -16z m349 -103 c53 -29 89 -41 122 -41 47 0 70 -18 73 -55 l2 -30
-139 -3 -139 -3 5 45 c5 41 33 95 51 96 4 0 15 -4 25 -9z m5287 -1831 c4 -6 2
-25 -4 -43 -6 -17 -15 -72 -21 -122 -23 -199 -53 -372 -70 -410 -5 -11 -12
-31 -15 -45 -4 -14 -14 -42 -23 -63 -16 -37 -16 -38 -62 -31 -123 18 -125 18
-128 44 -6 39 55 225 99 303 5 10 20 37 31 60 26 51 90 160 98 167 23 19 50
67 50 87 0 45 29 79 45 53z"/>
<path d="M5070 9070 c20 -13 50 -13 50 0 0 6 -15 10 -32 10 -25 0 -29 -3 -18
-10z"/>
<path d="M4900 9050 c-19 -4 -96 -11 -170 -14 -74 -4 -171 -11 -215 -16 -180
-22 -284 -32 -360 -37 -86 -5 -222 -17 -583 -53 -10 -1 122 -287 139 -300 3
-3 10 -16 14 -30 4 -14 16 -45 27 -70 35 -81 45 -105 58 -140 29 -79 90 -197
117 -226 24 -25 33 -29 45 -20 9 6 26 18 38 26 52 35 116 86 123 98 4 6 12 12
18 12 10 0 135 100 199 158 19 18 37 32 41 32 7 0 24 15 118 98 35 31 75 66
89 77 75 60 112 92 162 139 30 28 71 63 90 78 19 15 71 61 115 103 l80 75 -43
0 c-23 0 -42 5 -42 10 0 11 -10 11 -60 0z"/>
<path d="M6130 9021 c32 -17 70 -18 70 -1 0 12 -28 20 -68 20 l-37 0 35 -19z"/>
<path d="M5872 9002 c-19 -12 -1 -53 38 -85 32 -27 100 -38 100 -17 0 6 7 10
15 10 18 0 85 58 85 75 0 20 -209 35 -238 17z"/>
<path d="M4787 8374 c-17 -18 6 -88 38 -114 19 -15 57 3 120 55 l40 34 -25 9
c-34 13 -164 24 -173 16z"/>
<path d="M5020 8354 c0 -9 5 -14 12 -12 18 6 21 28 4 28 -9 0 -16 -7 -16 -16z"/>
<path d="M5138 7748 c-25 -31 -22 -63 7 -82 33 -22 45 -13 45 34 0 71 -20 89
-52 48z"/>
<path d="M2120 5932 c0 -13 47 -32 78 -32 l27 0 -25 20 c-25 20 -80 28 -80 12z"/>
<path d="M2341 5828 c-12 -32 -6 -38 39 -38 48 0 61 17 30 42 -30 25 -59 23
-69 -4z"/>
<path d="M2472 5808 c5 -15 78 -24 78 -10 0 10 -33 22 -63 22 -11 0 -17 -6
-15 -12z"/>
<path d="M7543 3811 c-29 -49 -53 -91 -53 -94 0 -3 -15 -38 -34 -79 -44 -97
-46 -103 -66 -176 -9 -35 -14 -65 -11 -66 3 -2 31 -7 61 -11 54 -6 55 -6 66
22 22 53 43 129 49 174 4 24 10 53 15 64 5 11 13 66 19 121 6 56 13 109 17
118 3 9 2 16 -2 16 -5 0 -33 -40 -61 -89z"/>
<path d="M6259 8548 c0 -35 -4 -99 -9 -143 -23 -209 -29 -270 -25 -273 3 -3
163 71 276 128 8 4 47 20 85 36 38 15 96 42 129 61 33 18 72 38 88 44 29 12
35 24 15 32 -7 3 -53 21 -103 41 -49 20 -97 40 -105 45 -9 5 -31 12 -50 16
-19 4 -41 11 -50 16 -22 11 -109 36 -155 43 -22 4 -52 9 -67 12 l-28 6 -1 -64z"/>
<path d="M6174 8567 c-74 -49 -158 -106 -169 -115 -5 -4 -21 -14 -35 -23 -14
-9 -37 -27 -51 -40 -14 -13 -47 -42 -74 -64 -128 -106 -129 -107 -78 -119 16
-3 69 -10 118 -15 83 -9 146 -29 160 -52 4 -5 37 -9 74 -9 l68 0 12 113 c19
179 33 349 29 353 -3 2 -26 -11 -54 -29z"/>
<path d="M2460 8473 c-34 -24 -59 -45 -225 -190 -91 -81 -257 -250 -330 -338
-28 -33 -62 -71 -76 -86 -15 -14 -35 -39 -45 -55 -22 -34 -78 -109 -96 -129
-12 -12 -60 -81 -125 -180 -46 -70 -163 -266 -163 -273 0 -4 -7 -20 -16 -37
-40 -75 -114 -225 -134 -270 -12 -27 -27 -63 -35 -80 -24 -56 -121 -336 -145
-420 -13 -49 -43 -167 -64 -255 -12 -49 -46 -263 -46 -287 0 -4 179 183 261
272 35 39 87 93 115 120 29 28 61 72 73 100 12 28 26 59 31 70 5 11 19 43 31
70 46 106 151 325 210 435 16 30 29 60 29 67 0 6 3 13 8 15 6 3 225 438 277
553 13 28 37 80 54 116 17 36 31 69 31 73 0 4 9 28 21 54 11 26 25 58 31 72
34 81 40 89 79 95 31 5 51 20 96 68 112 119 126 131 298 262 170 129 176 139
96 150 -26 4 -61 13 -76 21 -44 23 -124 17 -165 -13z"/>
<path d="M7101 8393 c-12 -36 -21 -73 -21 -80 0 -19 -90 -244 -105 -263 -7 -8
-15 -23 -18 -33 -4 -9 -26 -48 -50 -85 -24 -37 -47 -85 -51 -107 -8 -43 -64
-214 -76 -230 -4 -5 -10 -23 -14 -40 -4 -16 -11 -32 -15 -35 -4 -3 -19 -34
-35 -70 -15 -36 -34 -79 -42 -97 -8 -17 -14 -36 -14 -42 0 -6 -4 -11 -10 -11
-22 0 -8 -47 24 -82 33 -35 34 -36 57 -20 13 9 26 18 29 22 3 3 30 25 60 48
61 47 112 88 143 115 11 9 23 17 26 17 3 0 22 14 41 30 19 16 41 35 49 41 40
35 256 169 270 169 24 0 21 49 -6 100 -7 14 -13 35 -13 47 0 12 -4 24 -9 27
-4 3 -14 34 -20 68 -7 35 -16 72 -21 83 -5 11 -14 45 -20 75 -17 84 -36 163
-43 180 -3 8 -10 35 -16 60 -44 200 -65 224 -100 113z"/>
<path d="M7030 8433 c-8 -4 -21 -12 -28 -20 -34 -34 -164 -124 -232 -160 -41
-22 -109 -61 -151 -87 -42 -25 -82 -46 -88 -46 -6 0 -11 -4 -11 -8 0 -4 -25
-21 -55 -37 -30 -17 -55 -33 -55 -36 0 -16 130 -56 237 -74 24 -4 45 -11 49
-16 3 -5 13 -9 22 -9 9 0 28 -6 42 -13 14 -8 39 -16 56 -20 25 -5 33 -1 52 27
12 18 22 35 22 39 0 3 14 26 30 50 17 25 30 48 30 52 0 4 6 21 14 38 41 91 56
127 56 137 0 5 4 18 9 28 12 21 51 138 51 152 0 11 -26 12 -50 3z"/>
<path d="M6893 8412 c-18 -9 -58 -30 -90 -47 -32 -16 -74 -39 -93 -51 -19 -11
-46 -25 -60 -29 -30 -9 -93 -36 -176 -76 -33 -16 -65 -29 -71 -29 -6 0 -13 -3
-15 -7 -1 -5 -27 -19 -55 -32 -55 -25 -62 -36 -40 -63 37 -46 60 -41 174 38
35 24 67 44 73 44 5 0 10 3 10 8 0 4 24 18 53 32 28 13 54 27 57 31 3 4 40 25
82 48 94 49 123 67 162 104 17 15 34 27 38 27 5 0 8 5 8 10 0 14 -20 12 -57
-8z"/>
<path d="M5677 8172 c-9 -10 -17 -38 -19 -62 l-3 -45 35 1 c147 7 178 10 200
21 14 7 49 13 78 13 109 0 33 48 -91 56 -45 4 -101 12 -125 20 -54 18 -56 18
-75 -4z"/>
<path d="M2910 8164 c-19 -7 -45 -13 -57 -13 -12 -1 -24 -5 -27 -10 -3 -5 -22
-12 -42 -16 -20 -3 -44 -10 -53 -15 -17 -10 -127 -42 -201 -60 -25 -6 -72 -18
-105 -26 -33 -9 -72 -18 -88 -21 -63 -12 -40 -53 40 -70 104 -21 158 -34 178
-43 11 -5 36 -12 55 -15 40 -7 96 -22 335 -91 50 -14 135 -37 190 -50 55 -14
114 -29 131 -34 36 -12 77 -13 72 -2 -2 4 -10 21 -18 37 -8 17 -18 35 -23 40
-4 6 -31 42 -59 80 -29 39 -58 76 -65 83 -7 7 -13 17 -13 22 0 5 -6 15 -13 22
-12 12 -84 108 -130 173 -20 28 -50 31 -107 9z"/>
<path d="M6045 8080 c-25 -12 -62 -19 -97 -20 -36 0 -58 -4 -58 -11 0 -20 53
-110 71 -119 12 -7 30 1 71 33 64 50 130 121 121 131 -12 12 -68 5 -108 -14z"/>
<path d="M6348 8002 c-18 -22 -55 -100 -63 -134 -7 -26 -5 -28 26 -28 65 0
352 41 377 54 l24 13 -28 11 c-16 6 -51 16 -79 21 -110 21 -170 40 -226 71
-12 6 -21 4 -31 -8z"/>
<path d="M2235 7951 c-5 -9 6 -37 61 -158 8 -17 14 -34 14 -37 0 -3 11 -29 24
-58 13 -29 36 -89 51 -133 15 -44 32 -84 36 -89 5 -6 9 -17 9 -25 1 -9 9 -34
20 -56 11 -22 19 -47 20 -56 0 -8 4 -19 8 -25 5 -5 26 -55 47 -111 l37 -102
42 22 c38 21 188 116 248 158 15 10 30 19 33 19 5 0 53 34 110 77 6 5 37 26
70 48 33 22 66 46 73 53 7 6 17 12 22 12 11 0 172 118 187 138 11 13 8 17 -25
28 -20 7 -71 18 -112 24 -41 7 -79 15 -85 19 -5 3 -32 11 -60 17 -27 7 -76 19
-107 28 -137 38 -166 46 -218 62 -109 32 -249 67 -389 98 -36 8 -59 20 -69 34
-15 23 -37 29 -47 13z"/>
<path d="M2180 7919 c0 -7 -9 -30 -19 -53 -32 -68 -51 -114 -51 -120 0 -19
-248 -536 -261 -546 -4 -3 -11 -18 -14 -33 -4 -15 -11 -27 -15 -27 -4 0 -11
-12 -14 -26 -4 -14 -11 -31 -16 -37 -11 -14 -208 -406 -229 -458 -8 -19 -30
-68 -49 -109 -73 -161 -69 -150 -47 -150 8 0 15 5 15 10 0 6 4 10 9 10 6 0 53
29 106 65 52 36 99 65 102 65 4 0 73 43 153 96 80 53 170 113 200 133 30 20
57 39 58 44 2 4 8 7 13 7 9 0 78 48 116 80 7 6 24 15 38 22 14 6 25 15 25 20
0 4 6 8 13 8 6 0 26 12 42 28 17 15 46 38 65 52 19 13 40 28 45 32 72 59 69
53 52 87 -8 17 -18 44 -22 61 -4 16 -11 32 -16 35 -5 4 -9 14 -9 23 -1 9 -9
35 -20 57 -11 22 -19 45 -20 51 0 7 -7 25 -15 40 -8 16 -15 37 -15 46 0 9 -4
19 -9 22 -5 3 -14 28 -21 56 -7 28 -16 53 -21 56 -5 3 -9 12 -9 20 0 13 -11
41 -50 129 -5 11 -19 43 -30 70 -48 111 -65 145 -72 145 -5 0 -8 -5 -8 -11z"/>
<path d="M5331 7903 c-15 -31 -27 -246 -17 -286 5 -23 9 -25 29 -17 12 5 51
17 86 27 35 10 66 24 68 30 7 17 -82 189 -121 236 l-32 38 -13 -28z"/>
<path d="M6695 7864 c-91 -27 -208 -44 -351 -53 -189 -11 -192 -13 -120 -87
31 -32 56 -62 56 -67 0 -5 -19 -27 -42 -50 -106 -100 -218 -210 -218 -214 0
-5 18 5 55 33 17 12 66 41 110 64 44 23 87 48 95 55 8 7 33 23 55 35 22 12 86
49 142 81 56 33 107 59 112 59 6 0 11 4 11 9 0 5 12 14 28 21 46 19 72 34 72
42 0 5 6 8 13 8 8 0 24 9 37 20 13 11 27 20 32 20 14 0 38 27 31 34 -10 10
-64 5 -118 -10z"/>
<path d="M6788 7803 c-10 -2 -18 -9 -18 -14 0 -5 -5 -9 -11 -9 -6 0 -29 -13
-52 -28 -23 -15 -53 -33 -67 -40 -51 -26 -127 -68 -175 -100 -27 -17 -55 -32
-62 -32 -6 0 -13 -3 -15 -7 -1 -5 -21 -17 -42 -28 -22 -11 -44 -25 -50 -30 -6
-6 -34 -22 -61 -36 -28 -14 -87 -50 -132 -79 -80 -52 -80 -53 -71 -84 6 -17
44 -68 86 -114 l77 -83 95 93 c125 122 197 188 204 188 3 0 26 -22 52 -50 26
-27 51 -50 55 -50 8 0 99 180 99 195 0 4 6 21 14 38 40 88 56 127 74 182 12
33 24 68 27 78 7 17 4 18 -27 10z"/>
<path d="M5888 7787 c-45 -9 -47 -11 -42 -36 13 -53 26 -55 76 -7 52 50 46 58
-34 43z"/>
<path d="M5745 7734 c-27 -19 -66 -46 -85 -58 -19 -13 -43 -32 -52 -43 -17
-19 -16 -20 43 -52 l61 -33 26 24 c96 85 107 98 96 116 -6 10 -15 32 -19 50
-3 18 -10 32 -13 32 -4 -1 -29 -17 -57 -36z"/>
<path d="M7287 7566 c-37 -23 -75 -47 -85 -54 -51 -35 -93 -62 -97 -62 -3 0
-13 -8 -23 -17 -47 -46 -160 -133 -171 -133 -5 0 -14 -6 -18 -14 -4 -8 -48
-45 -98 -82 -49 -38 -95 -73 -102 -78 -35 -31 -43 -36 -56 -36 -7 0 -31 -15
-52 -33 l-39 -34 34 -44 c19 -24 43 -53 53 -64 10 -11 28 -33 40 -48 12 -16
40 -52 62 -80 22 -29 42 -54 45 -57 4 -3 32 -36 63 -75 32 -38 71 -87 88 -107
17 -21 35 -38 39 -38 7 0 58 130 75 190 4 14 11 30 15 35 4 6 11 26 15 45 8
40 73 247 85 270 4 9 11 31 15 50 4 19 11 40 15 45 4 6 11 26 15 45 4 19 11
41 15 50 5 8 25 62 45 120 52 148 78 213 88 228 19 25 1 19 -66 -22z"/>
<path d="M5573 7563 c-3 -9 -1 -30 5 -47 7 -18 12 -40 12 -50 0 -13 5 -16 16
-12 25 10 73 50 73 62 1 6 -22 22 -50 36 -43 23 -51 24 -56 11z"/>
<path d="M7347 7488 c-8 -18 -25 -64 -37 -103 -12 -38 -26 -79 -31 -90 -5 -11
-18 -49 -29 -85 -12 -36 -25 -74 -30 -85 -4 -11 -32 -94 -61 -185 -28 -91 -55
-169 -59 -175 -4 -5 -11 -26 -14 -45 -8 -39 -40 -137 -62 -187 -29 -64 -38
-61 224 -61 130 1 247 -2 260 -6 21 -7 22 -5 17 21 -3 15 -10 44 -16 63 -9 34
-25 156 -54 425 -31 284 -63 497 -81 528 -10 17 -12 16 -27 -15z"/>
<path d="M5524 7492 c-14 -9 -64 -103 -64 -119 0 -7 -4 -13 -10 -13 -5 0 -10
-8 -10 -18 0 -10 -7 -28 -16 -40 -35 -50 0 -32 66 33 58 57 70 75 70 101 0 55
-12 73 -36 56z"/>
<path d="M5943 7310 c-32 -17 -103 -75 -103 -84 0 -3 31 -35 68 -71 77 -75
163 -137 175 -126 4 4 -4 34 -19 67 -14 32 -28 83 -31 112 -3 28 -9 52 -12 52
-4 0 -13 16 -20 35 -14 39 -14 39 -58 15z"/>
<path d="M5781 7175 l-23 -25 25 0 c14 0 29 -4 32 -10 3 -5 28 -21 56 -34 40
-21 48 -22 40 -8 -9 15 -97 102 -103 102 -2 0 -14 -12 -27 -25z"/>
<path d="M6070 7182 c0 -10 4 -22 9 -27 4 -6 14 -31 21 -57 12 -47 12 -47 36
-30 30 22 30 27 -6 65 -17 18 -33 40 -36 50 -7 22 -24 22 -24 -1z"/>
<path d="M6511 6969 c-19 -48 -25 -65 -35 -104 -7 -26 -20 -45 -38 -54 -25
-15 -29 -14 -52 8 -14 14 -28 22 -31 19 -12 -11 8 -35 65 -77 59 -44 83 -64
174 -149 43 -40 47 -48 37 -65 -7 -10 -11 -20 -9 -22 2 -1 44 -10 93 -19 50
-9 102 -19 116 -22 18 -4 37 -23 60 -61 19 -30 39 -60 45 -67 12 -13 22 -30
91 -168 28 -57 55 -114 59 -128 4 -14 27 -63 52 -110 25 -47 52 -100 60 -117
17 -34 40 -47 27 -15 -4 9 -11 31 -17 47 -14 42 -20 56 -77 179 -28 59 -51
112 -51 118 0 9 -33 88 -49 118 -4 8 -18 49 -31 90 -17 55 -34 86 -64 118 -23
24 -45 51 -50 60 -5 10 -15 22 -21 27 -17 14 -167 197 -185 225 -14 22 -52 68
-126 154 l-33 39 -10 -24z"/>
<path d="M6416 6895 c-25 -20 -27 -26 -17 -39 18 -21 38 -10 45 26 3 17 5 32
4 34 -2 1 -16 -8 -32 -21z"/>
<path d="M4715 6733 c-154 -19 -339 -61 -392 -88 -15 -8 -32 -15 -36 -15 -12
0 -172 -81 -237 -120 -102 -60 -279 -218 -355 -315 -22 -27 -43 -54 -48 -60
-4 -5 -19 -23 -33 -40 -40 -47 -150 -276 -179 -373 -40 -135 -44 -152 -56
-237 -18 -133 -21 -165 -15 -165 3 0 54 46 113 103 188 180 334 319 723 687
118 112 262 248 320 304 58 56 159 152 224 214 l119 112 -59 -1 c-33 -1 -72
-4 -89 -6z"/>
<path d="M5290 6697 c0 -8 61 -186 84 -247 13 -36 30 -64 36 -62 7 1 40 31 75
65 34 34 82 79 105 100 24 21 39 42 34 46 -35 32 -334 119 -334 98z"/>
<path d="M5219 6638 c-16 -18 -29 -37 -29 -42 0 -5 -16 -42 -35 -82 -19 -40
-35 -75 -35 -79 0 -4 -7 -21 -14 -38 -8 -18 -31 -72 -51 -122 -20 -49 -40 -99
-45 -110 -38 -85 -50 -116 -50 -129 0 -8 -4 -17 -9 -20 -4 -3 -11 -18 -14 -33
-3 -16 -9 -37 -13 -48 -4 -11 26 12 67 51 74 71 185 176 312 294 62 60 80 91
58 105 -5 3 -13 20 -17 37 -3 18 -10 39 -15 48 -4 8 -20 57 -36 107 -15 51
-32 93 -36 93 -4 0 -21 -15 -38 -32z"/>
<path d="M4879 6319 c-134 -128 -287 -273 -339 -323 -266 -254 -468 -446 -498
-472 -18 -16 -77 -72 -131 -124 -53 -52 -150 -144 -213 -204 -290 -271 -291
-272 -284 -309 7 -37 30 -61 91 -97 22 -13 42 -27 45 -30 3 -3 24 -15 48 -27
l43 -21 80 77 c45 42 98 92 118 111 21 19 82 77 137 128 54 52 143 136 196
188 53 52 99 94 102 94 3 0 34 28 69 63 35 34 130 125 212 202 81 77 182 172
222 210 66 62 112 127 113 159 1 6 9 29 20 51 11 22 20 47 20 55 0 8 7 28 15
44 8 15 15 33 15 38 0 6 7 24 14 41 8 18 31 73 51 122 20 50 40 99 45 110 38
85 61 145 56 145 -2 0 -113 -104 -247 -231z"/>
<path d="M6538 6453 c-90 -93 -278 -273 -285 -273 -5 0 -22 13 -40 30 -46 43
-150 129 -208 172 -27 20 -56 42 -62 48 -9 8 -25 -2 -62 -37 -73 -72 -301
-286 -340 -320 -28 -24 -32 -32 -23 -49 6 -10 20 -48 32 -84 12 -36 26 -74 31
-85 17 -40 62 -171 72 -212 6 -24 14 -43 18 -43 4 0 10 -16 13 -35 4 -19 13
-47 21 -62 8 -15 15 -33 15 -39 0 -6 11 -45 24 -85 l24 -74 125 -3 125 -3 39
57 c55 81 200 287 211 300 5 5 15 21 22 34 7 14 18 30 24 36 6 6 18 22 26 34
8 12 35 49 59 83 24 33 73 104 109 156 82 121 105 153 117 167 6 6 17 22 25
34 8 12 23 33 33 45 9 13 17 26 17 29 0 7 41 67 51 76 3 3 18 26 33 51 l26 47
-22 6 c-21 7 -119 30 -178 42 -20 5 -34 -4 -72 -43z"/>
<path d="M7038 6434 c-20 -6 -23 -25 -9 -52 13 -26 51 -126 51 -135 0 -5 20
-50 44 -100 60 -127 80 -174 101 -232 22 -63 35 -96 46 -115 21 -35 32 -68 36
-110 9 -90 43 -111 59 -37 3 18 10 37 14 42 15 21 49 192 75 370 33 235 48
321 56 337 6 11 5 19 -3 25 -14 9 -442 15 -470 7z"/>
<path d="M6814 6378 c-28 -41 -33 -49 -61 -82 -7 -8 -13 -17 -13 -20 0 -6
-110 -169 -119 -176 -3 -3 -24 -32 -46 -65 -22 -33 -43 -62 -46 -65 -3 -3 -12
-16 -19 -29 -7 -14 -17 -30 -21 -35 -13 -16 -162 -222 -176 -243 -7 -10 -32
-47 -55 -83 -23 -36 -53 -76 -65 -90 -13 -14 -23 -28 -23 -32 0 -3 -6 -13 -12
-20 -23 -24 -58 -77 -58 -86 0 -5 -7 -15 -15 -22 -8 -7 -15 -16 -15 -21 0 -5
174 -9 393 -9 369 0 480 6 532 30 11 5 43 14 70 20 28 6 75 17 105 25 30 8 74
19 98 24 23 6 54 8 67 5 26 -7 35 12 15 32 -6 6 -13 35 -17 64 -6 50 -46 128
-74 146 -11 6 -59 107 -59 123 0 5 -4 11 -8 13 -9 3 -112 196 -112 210 0 8
-131 276 -153 313 -7 10 -18 25 -24 33 -7 7 -13 19 -13 26 0 13 -33 56 -42 56
-3 0 -18 -19 -34 -42z"/>
<path d="M7545 6393 c-14 -36 -36 -162 -55 -308 -34 -262 -75 -442 -113 -493
-5 -7 -7 -15 -4 -18 8 -8 94 26 108 42 6 8 16 14 21 14 5 0 16 6 24 13 8 6 20
17 27 22 7 6 32 23 57 40 25 16 59 41 76 55 37 29 64 49 95 70 12 8 42 30 66
48 24 17 47 32 52 32 4 0 19 10 32 21 13 12 34 28 47 36 36 25 28 54 -30 98
-28 22 -58 47 -67 55 -9 8 -39 33 -65 54 -73 59 -153 141 -170 175 -9 16 -30
36 -47 45 -40 20 -45 20 -54 -1z"/>
<path d="M1361 6242 c-74 -81 -190 -203 -280 -296 -51 -53 -81 -91 -73 -93 7
-3 18 -10 25 -17 6 -6 30 -23 52 -36 22 -13 45 -29 52 -35 31 -26 39 -31 57
-38 24 -10 187 -108 202 -122 6 -5 28 -19 50 -30 21 -11 41 -22 44 -25 3 -3
20 -13 38 -22 89 -47 194 -105 252 -141 36 -22 97 -57 135 -77 122 -65 139
-75 153 -87 7 -7 20 -13 27 -13 22 0 65 19 65 29 0 8 -59 93 -88 126 -15 17
-83 116 -119 170 -17 28 -36 55 -40 60 -5 6 -20 28 -33 50 -13 22 -27 42 -30
45 -3 3 -17 23 -30 45 -13 22 -28 45 -33 50 -4 6 -23 33 -40 62 -34 56 -205
310 -222 330 -5 6 -26 34 -45 62 -22 32 -42 51 -55 50 -11 0 -40 -21 -64 -47z"/>
<path d="M5383 5922 c-50 -48 -122 -116 -160 -151 -275 -259 -286 -271 -267
-286 11 -8 28 -17 39 -21 11 -4 22 -9 25 -13 3 -3 81 -44 174 -91 111 -55 171
-80 174 -72 3 9 51 12 183 12 109 0 179 4 179 10 0 9 -44 150 -57 180 -12 31
-95 266 -105 300 -5 19 -14 39 -19 45 -5 5 -9 16 -9 25 0 8 -7 28 -15 44 -8
16 -18 46 -21 67 -4 22 -12 39 -18 39 -6 0 -52 -40 -103 -88z"/>
<path d="M7246 5751 c-4 -6 0 -21 8 -33 15 -21 16 -21 16 -3 0 28 -16 50 -24
36z"/>
<path d="M4830 5399 c-41 -39 -106 -100 -145 -136 -38 -36 -111 -104 -160
-152 -50 -47 -133 -126 -185 -175 -52 -49 -170 -160 -262 -248 l-167 -159 52
-53 c89 -90 88 -88 54 -144 -12 -20 -33 -59 -45 -87 -13 -27 -29 -63 -38 -79
-18 -35 -14 -41 71 -100 71 -50 176 -106 255 -136 30 -12 64 -25 75 -30 135
-59 377 -97 630 -99 320 -3 543 44 790 165 113 55 244 153 236 177 -2 6 -10
53 -17 102 -7 50 -20 137 -29 195 -9 58 -22 152 -30 209 -9 56 -18 107 -21
112 -3 5 -122 9 -265 9 l-259 0 0 229 0 229 -69 41 c-38 22 -73 41 -77 41 -12
0 -99 45 -102 53 -2 4 -9 7 -15 7 -14 0 -147 68 -168 86 -8 8 -20 14 -25 14
-5 0 -43 -32 -84 -71z"/>
<path d="M7420 5403 c-33 -5 -50 -33 -61 -102 -10 -60 -28 -163 -52 -301 -17
-90 -41 -195 -57 -246 -5 -16 -14 -50 -19 -75 -16 -73 -32 -133 -40 -149 -5
-9 -12 -36 -16 -60 -4 -24 -11 -51 -16 -60 -4 -8 -12 -34 -18 -57 -27 -108
-33 -129 -41 -148 -5 -11 -16 -51 -24 -90 -8 -38 -22 -97 -31 -130 -9 -33 -22
-82 -29 -110 -7 -27 -15 -57 -19 -65 -12 -30 -56 -241 -56 -274 -1 -18 0 -18
19 -1 11 10 20 24 20 30 0 15 36 132 49 160 29 60 51 115 51 125 0 13 22 66
46 113 8 16 14 33 14 38 0 6 9 31 21 57 37 84 50 117 85 202 9 25 26 64 36 87
10 23 18 47 18 53 0 10 19 57 50 125 5 11 19 45 30 75 11 30 25 64 30 75 32
70 52 121 72 181 12 38 26 71 30 72 4 2 8 11 8 20 0 10 6 28 13 42 7 14 23 53
36 88 13 34 28 65 32 68 5 3 9 12 9 20 0 14 12 45 56 141 8 17 14 44 14 61 0
25 -5 30 -31 36 -33 6 -186 6 -229 -1z"/>
<path d="M7267 5363 c-4 -3 -35 -12 -69 -19 -117 -25 -190 -42 -195 -47 -2 -3
-7 -76 -9 -163 -3 -88 -9 -192 -13 -231 -4 -40 -5 -73 -2 -73 6 0 62 86 115
175 16 27 34 55 40 61 6 7 38 51 71 99 33 48 75 107 93 131 40 55 41 74 4 74
-16 0 -32 -3 -35 -7z"/>
<path d="M2535 5343 c-11 -2 -29 -8 -40 -13 -11 -5 -39 -14 -62 -20 -23 -6
-54 -17 -70 -25 -15 -8 -34 -15 -40 -15 -7 0 -13 -4 -13 -10 0 -5 -5 -10 -11
-10 -5 0 -29 -8 -52 -19 -23 -10 -61 -27 -84 -37 -43 -18 -57 -46 -34 -69 12
-12 27 -70 85 -325 7 -30 15 -62 18 -70 4 -8 11 -40 17 -70 6 -30 17 -86 26
-125 9 -38 22 -99 28 -135 7 -36 17 -63 22 -61 6 2 53 44 106 95 l97 91 5 210
c6 212 22 494 32 573 4 23 3 41 -2 41 -4 -1 -17 -3 -28 -6z"/>
<path d="M2596 5273 c-4 -38 -11 -111 -16 -163 -5 -52 -13 -198 -16 -325 l-7
-230 59 55 c248 230 236 216 228 259 -3 20 -10 50 -15 66 -4 17 -13 91 -20
165 -6 74 -12 135 -12 135 -1 0 -18 11 -37 25 -37 26 -139 80 -151 80 -4 0
-10 -30 -13 -67z"/>
<path d="M7301 5245 c0 -6 -8 -20 -16 -30 -65 -87 -190 -270 -205 -300 -3 -6
-31 -50 -63 -98 -42 -64 -64 -108 -78 -163 -32 -122 -66 -218 -105 -301 -39
-80 -141 -260 -186 -325 -64 -94 -219 -257 -338 -358 -93 -78 -140 -131 -140
-155 0 -18 14 -26 83 -49 45 -15 91 -31 102 -36 11 -4 49 -18 85 -31 36 -13
76 -29 90 -36 14 -7 31 -13 38 -13 14 0 90 -32 134 -55 14 -8 33 -15 42 -15 9
0 16 -4 16 -8 0 -4 14 -13 32 -20 41 -15 49 -7 76 73 19 57 39 169 33 189 -3
13 29 186 39 211 5 11 14 43 20 70 6 28 16 70 21 95 6 25 14 54 19 65 4 11 13
40 20 65 6 25 18 70 26 100 8 30 22 87 30 125 8 39 19 79 24 90 5 11 14 38 19
60 6 22 14 56 20 75 33 123 55 207 77 295 13 55 29 116 34 135 25 86 62 306
57 335 -2 11 -5 15 -6 10z"/>
<path d="M2096 5048 c-2 -7 -9 -31 -14 -53 -6 -22 -18 -65 -27 -95 -9 -30 -21
-75 -26 -100 -6 -25 -14 -54 -19 -65 -20 -48 -33 -116 -37 -193 -6 -117 8
-153 170 -417 7 -10 18 -25 25 -33 6 -7 12 -18 12 -24 0 -6 23 -44 50 -85 28
-40 50 -78 50 -83 0 -6 5 -10 10 -10 6 0 10 -4 10 -10 0 -15 85 -143 110 -165
l23 -20 -6 25 c-3 14 -13 54 -22 90 -19 76 -51 222 -67 300 -5 30 -14 59 -19
65 -5 5 -9 18 -9 29 0 11 -10 30 -22 43 -18 19 -20 27 -11 41 11 19 2 83 -32
222 -8 36 -22 97 -31 135 -45 205 -54 245 -69 305 -9 36 -19 75 -22 88 -6 24
-21 30 -27 10z"/>
<path d="M3450 4776 c0 -6 63 -137 74 -154 6 -11 16 -6 42 19 19 18 34 38 34
44 0 6 -27 25 -60 43 -33 18 -62 37 -65 43 -6 9 -25 13 -25 5z"/>
<path d="M5933 4764 c-8 -4 -9 -12 -3 -27 5 -12 14 -53 19 -92 6 -38 18 -115
26 -170 9 -55 22 -140 29 -190 8 -49 17 -98 21 -108 7 -17 8 -17 27 0 34 30
143 174 185 243 49 82 134 275 146 335 2 10 -426 18 -450 9z"/>
<path d="M2920 4462 c-52 -55 -331 -316 -341 -320 -22 -9 -40 -69 -54 -184
-15 -133 -28 -202 -46 -260 -9 -28 -9 -42 2 -67 17 -37 48 -41 86 -11 14 11
31 20 39 20 7 0 14 3 16 8 2 4 25 18 51 32 71 37 74 44 38 80 -39 39 -37 43
75 145 48 44 122 114 164 155 42 41 96 91 120 111 l43 37 -43 73 c-55 93 -100
180 -100 196 0 25 -17 20 -50 -15z"/>
<path d="M3798 4425 c-43 -41 -78 -79 -78 -85 0 -5 12 -24 28 -40 l27 -31 55
29 c30 16 66 33 80 37 28 9 80 45 80 56 0 11 -97 109 -107 109 -4 0 -43 -34
-85 -75z"/>
<path d="M3888 4288 c-43 -22 -78 -42 -78 -46 0 -16 71 -83 81 -77 11 7 83
155 77 160 -2 2 -38 -15 -80 -37z"/>
<path d="M2363 4149 c3 -13 9 -46 13 -74 3 -27 9 -54 13 -60 3 -5 11 -35 18
-65 32 -145 40 -175 49 -175 9 0 13 19 33 160 14 97 14 125 -2 119 -7 -2 -39
23 -71 57 -45 47 -58 56 -53 38z"/>
<path d="M3196 3858 c-52 -51 -135 -130 -183 -175 -49 -45 -96 -90 -105 -99
-15 -16 -20 -13 -73 45 -32 33 -61 61 -65 61 -5 0 -43 -20 -84 -45 -42 -25
-81 -45 -86 -45 -6 0 -10 -4 -10 -10 0 -5 -7 -10 -15 -10 -18 0 -20 -19 -2
-25 6 -3 57 -12 112 -20 55 -9 136 -23 180 -31 44 -8 114 -21 155 -28 41 -8
109 -21 150 -31 41 -9 94 -20 118 -25 24 -5 63 -16 88 -25 60 -20 59 -20 85
23 13 20 29 43 36 50 7 7 13 18 13 23 0 5 5 15 11 22 5 7 28 41 49 77 l39 65
-47 40 c-26 22 -95 88 -153 147 -59 59 -109 108 -112 108 -3 0 -48 -42 -101
-92z"/>
<path d="M6180 3438 c1 -64 101 -580 115 -596 5 -5 136 68 153 84 7 8 17 14
22 14 20 0 330 265 319 273 -6 5 -125 61 -184 87 -27 12 -63 27 -80 35 -16 7
-45 16 -63 20 -18 4 -45 13 -60 21 -15 8 -33 14 -40 14 -7 0 -20 4 -30 9 -17
10 -137 51 -147 51 -3 0 -5 -6 -5 -12z"/>
</g>
</svg>
